<svg xmlns="http://www.w3.org/2000/svg" version="1" viewBox="0 0 512 512"><path fill="#00391f" d="M415 228L262 75c-9-9-24-9-33 0s-9 24 0 32l154 154a23 23 0 0 0 32-33zM218 129l-1 5c-8 41-28 80-55 111l84 83c31-26 69-47 110-55l5-1zM147 262l-57 57a35 35 0 0 0 0 49l33 32c13 14 35 14 48 0l57-56zm8 90a12 12 0 1 1-16-17l16-16a12 12 0 1 1 16 16zM276 407l16-16c14-14 14-35 0-49l-12-11-18 14 14 13c4 5 4 12 0 17l-16 16-23-23-33 32 52 51a23 23 0 0 0 33-33zM323 65c-6 0-12 5-12 12v23a11 11 0 1 0 23 0V77c0-7-5-12-11-12zM415 157h-23a11 11 0 1 0 0 23h23a11 11 0 1 0 0-23zM400 91c-4-4-12-4-16 0l-23 23a12 12 0 1 0 16 17l23-23c5-5 5-12 0-17z"/></svg>