<svg xmlns="http://www.w3.org/2000/svg" xmlns:xlink="http://www.w3.org/1999/xlink">
<symbol viewBox="0 0 17.6 14.3" id="icon-twitter"><path d="M17.6 1.7c-.6.3-1.3.5-2.1.6.7-.4 1.3-1.2 1.6-2-.7.4-1.5.7-2.3.9C14.2.4 13.2 0 12.2 0c-2.3 0-4 2.2-3.5 4.4C5.7 4.3 3 2.8 1.2.7.3 2.3.7 4.4 2.3 5.5c-.6 0-1.1-.2-1.6-.5 0 1.7 1.2 3.2 2.9 3.6-.5.1-1.1.2-1.6.1.5 1.4 1.8 2.5 3.4 2.5C3.9 12.4 2 12.9.1 12.7c1.6 1 3.5 1.6 5.5 1.6 6.7 0 10.5-5.7 10.3-10.7.6-.5 1.2-1.2 1.7-1.9z"></path></symbol>
<symbol viewBox="0 0 8.8 17.6" id="icon-facebook"><path d="M2.2 5.9H0v2.9h2.2v8.8h3.7V8.8h2.7l.3-2.9h-3V4.6c0-.7.1-1 .8-1h2.1V0H6C3.4 0 2.2 1.2 2.2 3.4v2.5z"></path></symbol>
<symbol viewBox="0 0 81.8 59.5" id="icon-email"><path stroke-width="6" stroke-miterlimit="10" fill="none" d="M3 3h75.8v53.5h-75.8zM3.5 4l37.7 29.4M40.4 33.4l37.7-29.4"></path></symbol>
<symbol viewBox="0 0 17.6 17.6" id="icon-instagram"><path d="M8.8 1.6c2.3 0 2.6 0 3.6.1 2.4.1 3.5 1.2 3.6 3.6v3.5c0 2.3 0 2.6-.1 3.6-.1 2.4-1.2 3.5-3.6 3.6-.9 0-1.2.1-3.6.1-2.3 0-2.6 0-3.6-.1-2.4-.1-3.5-1.2-3.6-3.6 0-.9-.1-1.2-.1-3.6 0-2.3 0-2.6.1-3.6.1-2.4 1.2-3.5 3.6-3.6h3.7zm0-1.6C6.4 0 6.1 0 5.2.1 2 .2.2 2 .1 5.2 0 6.1 0 6.4 0 8.8c0 2.4 0 2.7.1 3.6.1 3.2 1.9 5 5.1 5.1.9 0 1.2.1 3.6.1 2.4 0 2.7 0 3.6-.1 3.2-.1 5-1.9 5.1-5.1 0-.9.1-1.2.1-3.6 0-2.4 0-2.7-.1-3.6-.1-3.2-1.9-5-5.1-5.1-.9-.1-1.2-.1-3.6-.1zm0 4.3c-2.5 0-4.5 2-4.5 4.5s2 4.5 4.5 4.5 4.5-2 4.5-4.5-2-4.5-4.5-4.5zm0 7.4c-1.6 0-2.9-1.3-2.9-2.9 0-1.6 1.3-2.9 2.9-2.9s2.9 1.3 2.9 2.9c0 1.6-1.3 2.9-2.9 2.9zM13.5 3c-.6 0-1.1.5-1.1 1.1s.5 1.1 1.1 1.1c.6 0 1.1-.5 1.1-1.1S14.1 3 13.5 3z"></path></symbol>
<symbol viewBox="0 0 23.6 17.7" id="icon-youtube"><path d="M19.3.2C15.8 0 7.9 0 4.3.2.5.4 0 2.8 0 8.8c0 6.1.5 8.4 4.3 8.7 3.5.2 11.4.2 15 0 3.8-.3 4.3-2.6 4.3-8.7 0-6-.5-8.4-4.3-8.6zM8.8 12.8V4.9l7.9 3.9-7.9 4z"></path></symbol>
</svg>