<svg xmlns="http://www.w3.org/2000/svg" xmlns:xlink="http://www.w3.org/1999/xlink">
<symbol viewBox="0 0 17.6 14.3" id="icon-twitter"><path d="M17.6 1.7c-.6.3-1.3.5-2.1.6.7-.4 1.3-1.2 1.6-2-.7.4-1.5.7-2.3.9C14.2.4 13.2 0 12.2 0c-2.3 0-4 2.2-3.5 4.4C5.7 4.3 3 2.8 1.2.7.3 2.3.7 4.4 2.3 5.5c-.6 0-1.1-.2-1.6-.5 0 1.7 1.2 3.2 2.9 3.6-.5.1-1.1.2-1.6.1.5 1.4 1.8 2.5 3.4 2.5C3.9 12.4 2 12.9.1 12.7c1.6 1 3.5 1.6 5.5 1.6 6.7 0 10.5-5.7 10.3-10.7.6-.5 1.2-1.2 1.7-1.9z"></path></symbol>
<symbol viewBox="0 0 8.8 17.6" id="icon-facebook"><path d="M2.2 5.9H0v2.9h2.2v8.8h3.7V8.8h2.7l.3-2.9h-3V4.6c0-.7.1-1 .8-1h2.1V0H6C3.4 0 2.2 1.2 2.2 3.4v2.5z"></path></symbol>
<symbol viewBox="0 0 81.8 59.5" id="icon-email"><path stroke-width="6" stroke-miterlimit="10" fill="none" d="M3 3h75.8v53.5h-75.8zM3.5 4l37.7 29.4M40.4 33.4l37.7-29.4"></path></symbol>
<symbol viewBox="0 0 17.6 17.6" id="icon-instagram"><path d="M8.8 1.6c2.3 0 2.6 0 3.6.1 2.4.1 3.5 1.2 3.6 3.6v3.5c0 2.3 0 2.6-.1 3.6-.1 2.4-1.2 3.5-3.6 3.6-.9 0-1.2.1-3.6.1-2.3 0-2.6 0-3.6-.1-2.4-.1-3.5-1.2-3.6-3.6 0-.9-.1-1.2-.1-3.6 0-2.3 0-2.6.1-3.6.1-2.4 1.2-3.5 3.6-3.6h3.7zm0-1.6C6.4 0 6.1 0 5.2.1 2 .2.2 2 .1 5.2 0 6.1 0 6.4 0 8.8c0 2.4 0 2.7.1 3.6.1 3.2 1.9 5 5.1 5.1.9 0 1.2.1 3.6.1 2.4 0 2.7 0 3.6-.1 3.2-.1 5-1.9 5.1-5.1 0-.9.1-1.2.1-3.6 0-2.4 0-2.7-.1-3.6-.1-3.2-1.9-5-5.1-5.1-.9-.1-1.2-.1-3.6-.1zm0 4.3c-2.5 0-4.5 2-4.5 4.5s2 4.5 4.5 4.5 4.5-2 4.5-4.5-2-4.5-4.5-4.5zm0 7.4c-1.6 0-2.9-1.3-2.9-2.9 0-1.6 1.3-2.9 2.9-2.9s2.9 1.3 2.9 2.9c0 1.6-1.3 2.9-2.9 2.9zM13.5 3c-.6 0-1.1.5-1.1 1.1s.5 1.1 1.1 1.1c.6 0 1.1-.5 1.1-1.1S14.1 3 13.5 3z"></path></symbol>
<symbol viewBox="0 0 23.6 17.7" id="icon-youtube"><path d="M19.3.2C15.8 0 7.9 0 4.3.2.5.4 0 2.8 0 8.8c0 6.1.5 8.4 4.3 8.7 3.5.2 11.4.2 15 0 3.8-.3 4.3-2.6 4.3-8.7 0-6-.5-8.4-4.3-8.6zM8.8 12.8V4.9l7.9 3.9-7.9 4z"></path></symbol>
<symbol viewBox="0 0 512 512" id="icon-mairie"><path d="M265 137h-9v-26a9 9 0 1 0-17 0v34c0 5 4 9 8 9h18a9 9 0 1 0 0-17zM94 358H60c-5 0-9 4-9 9v51c0 5 4 9 9 9h34c5 0 8-4 8-9v-51c0-5-3-9-8-9zm-9 52H68v-35h17v35zM102 265c0-5-3-9-8-9H60c-5 0-9 4-9 9v51c0 4 4 8 9 8h34c5 0 8-4 8-8v-51zm-17 42H68v-34h17v34z"/><path d="M119 213c0-4-3-8-8-8H17v-9a9 9 0 1 0-17 0v290c0 15 11 26 26 26h68a26 26 0 1 0-5-51c-5-10-17-17-29-17s-24 7-30 17a25 25 0 0 0-13 1V222h94c5 0 8-4 8-9zM26 478l4 1a9 9 0 0 0 13-5 17 17 0 0 1 33 0 9 9 0 0 0 13 5c6-3 13 1 13 7 0 5-3 9-8 9H26a9 9 0 0 1 0-17zM367 478H145c-5 0-8 4-8 8v17a9 9 0 1 0 17 0v-8h204v8a9 9 0 1 0 17 0v-17c0-4-3-8-8-8zM145 461c5 0 9-4 9-9V119a9 9 0 1 0-17 0v333c0 5 3 9 8 9zM367 102c-5 0-9 4-9 9v341a9 9 0 1 0 17 0V111c0-5-3-9-8-9zM503 188c-4 0-8 4-8 8v9h-94a9 9 0 1 0 0 17h94v240a25 25 0 0 0-13-1c-6-10-17-17-30-17-12 0-24 7-29 17h-5a26 26 0 0 0 0 51h68c15 0 26-11 26-26V196c0-4-4-8-9-8zm-17 307h-68a9 9 0 0 1 0-17l5 1a9 9 0 0 0 13-5 17 17 0 0 1 33 0 9 9 0 0 0 13 5c5-3 13 1 13 7 0 5-4 9-9 9zM388 78L260 1h-8L124 78a9 9 0 1 0 8 15l124-75 124 75a8 8 0 0 0 11-3c3-4 1-10-3-12z"/><path d="M410 418c0 5 3 9 8 9h34c5 0 9-4 9-9v-51c0-5-4-9-9-9h-34c-5 0-8 4-8 9v51zm17-43h17v35h-17v-35zM418 324h34c5 0 9-4 9-8v-51c0-5-4-9-9-9h-34c-5 0-8 4-8 9v51c0 4 3 8 8 8zm9-51h17v34h-17v-34zM250 412l-3 6c0 2 1 5 3 6l6 3 6-3c2-1 3-4 3-6l-3-6c-3-3-9-3-12 0zM188 316c0 4 4 8 8 8h34c5 0 9-4 9-8v-51c0-5-4-9-9-9h-34c-4 0-8 4-8 9v51zm17-43h17v34h-17v-34zM282 256c-5 0-9 4-9 9v51c0 4 4 8 9 8h34c4 0 8-4 8-8v-51c0-5-4-9-8-9h-34zm25 51h-17v-34h17v34zM256 68a68 68 0 1 0 0 137 68 68 0 0 0 0-137zm0 120a51 51 0 1 1 0-103 51 51 0 0 1 0 103z"/><path d="M171 367c0 5 3 8 8 8h26v77a9 9 0 1 0 17 0v-77h68v77a9 9 0 1 0 17 0v-77h26a9 9 0 1 0 0-17H179c-5 0-8 4-8 9z"/></svg>
</svg>