<svg xmlns="http://www.w3.org/2000/svg" version="1" viewBox="0 0 512 512"><path fill="gray" d="M413 289l-98 62 3-33c-15 9-27 31-27 48s12 24 27 14l95-59c7-5 13-16 13-24 0-9-6-12-13-8z"/><path fill="#999" d="M312 356l114-72-208-131-86 90z"/><path fill="#b3b3b3" d="M425 283c-4-2-10-2-15 2l-98 61a6 6 0 1 0 6 10l98-62 3-1 1 4c0 6-5 15-10 19l-95 60c-5 3-10 4-13 2s-5-6-5-12c0-15 11-35 24-43l103-65a6 6 0 0 0 0-9L228 125l-11-6-107 67c-13 8-23 27-23 43 0 15 10 34 23 42l185 116 1 1c7 4 16 3 25-3l95-60c4-2 7-6 10-10 3-6 6-12 6-18 0-7-3-11-7-14z"/><g fill="#8b7e7f"><path d="M353 256l-3-1-135-85a6 6 0 0 1 6-10l135 85a6 6 0 0 1-3 11zM330 271l-4-1-57-35a6 6 0 0 1 7-10l57 36a6 6 0 0 1-3 10zM306 287l-3-1-57-36a6 6 0 0 1 6-10l57 36a6 6 0 0 1-3 11z"/></g><path fill="#f14742" d="M145 211l58 36 47-31-56-36z"/><g fill="#8b7e7f"><path d="M283 302l-3-1-58-36a6 6 0 1 1 6-9l58 36a6 6 0 0 1-3 10zM267 323l-3-1-143-89a6 6 0 1 1 6-10l143 89a6 6 0 0 1-3 11z"/></g></svg>