<svg xmlns="http://www.w3.org/2000/svg" version="1" viewBox="0 0 612 612"><g fill="#087442"><path d="M170 324c3 8 6 17 7 26l4 43c0 5 4 10 10 11l18 3c3 0 5 2 6 5l2 12c1 6 6 10 12 10h145c6 0 10-4 12-9l2-14c1-2 3-4 6-4l23-4c5-1 9-5 10-11l3-44c1-9 3-17 6-25 3-12 7-24 7-36 0-79-63-144-140-144s-140 65-140 144c0 13 4 25 7 37zm151-7c1-23 21-28 44-27 22 0 38 8 37 30a41 41 0 1 1-81-3zm-13 44l14 21c2 2 2 5 1 7l-2 4c-1 2-4 4-6 4h-25c-2 0-5-2-6-4l-2-4c-1-2-1-5 1-7l14-21c3-4 8-4 11 0zm-67-71c23-1 43 4 44 27a41 41 0 1 1-82 3c-1-22 16-30 38-30zM485 123a35 35 0 1 0-59 19l-12 13c-5 5-5 13 0 18l21 22c5 5 14 5 19 0l12-13a35 35 0 1 0 19-59zM141 182l12 13c5 5 14 5 19 0l21-22c5-5 5-13 0-18l-12-13a35 35 0 1 0-59-19 35 35 0 1 0 19 59zM516 424a35 35 0 0 0-50-1l-12-12c-5-5-14-5-19 0l-21 21c-5 5-5 14 0 19l12 12a35 35 0 1 0 59 19 35 35 0 0 0 31-58zM122 482a35 35 0 1 0 59-19l12-12c5-5 5-14 0-19l-21-21c-5-5-14-5-19 0l-12 12a35 35 0 1 0-19 59z"/></g></svg>