<svg xmlns="http://www.w3.org/2000/svg" version="1" viewBox="0 0 512 512"><defs><filter id="a" color-interpolation-filters="sRGB"><feColorMatrix result="fbSourceGraphic" values="1 0 0 -0.397906 -0 0 1 0 -0.397906 -0 0 0 1 -0.397906 -0 0 0 0 1 0"/><feColorMatrix in="fbSourceGraphic" result="fbSourceGraphicAlpha" values="0 0 0 -1 0 0 0 0 -1 0 0 0 0 -1 0 0 0 0 1 0"/><feColorMatrix in="fbSourceGraphic" result="fbSourceGraphic" values="0.643979 0 0 -0.0989675 0.17801 0 0.643979 0 -0.0989675 0.17801 0 0 0.643979 -0.0989675 0.17801 0 0 0 1 0"/><feColorMatrix in="fbSourceGraphic" result="fbSourceGraphicAlpha" values="0 0 0 -1 0 0 0 0 -1 0 0 0 0 -1 0 0 0 0 1 0"/><feColorMatrix in="fbSourceGraphic" values="0.9476 0 0 0.0448545 0.0262 0 0.9476 0 0.0448545 0.0262 0 0 0.9476 0.0448545 0.0262 0 0 0 1 0"/></filter><filter id="b" color-interpolation-filters="sRGB"><feColorMatrix result="fbSourceGraphic" values="1 0 0 -0.397906 -0 0 1 0 -0.397906 -0 0 0 1 -0.397906 -0 0 0 0 1 0"/><feColorMatrix in="fbSourceGraphic" result="fbSourceGraphicAlpha" values="0 0 0 -1 0 0 0 0 -1 0 0 0 0 -1 0 0 0 0 1 0"/><feColorMatrix in="fbSourceGraphic" result="fbSourceGraphic" values="0.643979 0 0 -0.0989675 0.17801 0 0.643979 0 -0.0989675 0.17801 0 0 0.643979 -0.0989675 0.17801 0 0 0 1 0"/><feColorMatrix in="fbSourceGraphic" result="fbSourceGraphicAlpha" values="0 0 0 -1 0 0 0 0 -1 0 0 0 0 -1 0 0 0 0 1 0"/><feColorMatrix in="fbSourceGraphic" values="0.9476 0 0 0.0448545 0.0262 0 0.9476 0 0.0448545 0.0262 0 0 0.9476 0.0448545 0.0262 0 0 0 1 0"/></filter><filter id="c" color-interpolation-filters="sRGB"><feColorMatrix result="fbSourceGraphic" values="1 0 0 -0.397906 -0 0 1 0 -0.397906 -0 0 0 1 -0.397906 -0 0 0 0 1 0"/><feColorMatrix in="fbSourceGraphic" result="fbSourceGraphicAlpha" values="0 0 0 -1 0 0 0 0 -1 0 0 0 0 -1 0 0 0 0 1 0"/><feColorMatrix in="fbSourceGraphic" result="fbSourceGraphic" values="0.643979 0 0 -0.0989675 0.17801 0 0.643979 0 -0.0989675 0.17801 0 0 0.643979 -0.0989675 0.17801 0 0 0 1 0"/><feColorMatrix in="fbSourceGraphic" result="fbSourceGraphicAlpha" values="0 0 0 -1 0 0 0 0 -1 0 0 0 0 -1 0 0 0 0 1 0"/><feColorMatrix in="fbSourceGraphic" values="0.9476 0 0 0.0448545 0.0262 0 0.9476 0 0.0448545 0.0262 0 0 0.9476 0.0448545 0.0262 0 0 0 1 0"/></filter><filter id="d" color-interpolation-filters="sRGB"><feColorMatrix result="fbSourceGraphic" values="1 0 0 -0.397906 -0 0 1 0 -0.397906 -0 0 0 1 -0.397906 -0 0 0 0 1 0"/><feColorMatrix in="fbSourceGraphic" result="fbSourceGraphicAlpha" values="0 0 0 -1 0 0 0 0 -1 0 0 0 0 -1 0 0 0 0 1 0"/><feColorMatrix in="fbSourceGraphic" result="fbSourceGraphic" values="0.643979 0 0 -0.0989675 0.17801 0 0.643979 0 -0.0989675 0.17801 0 0 0.643979 -0.0989675 0.17801 0 0 0 1 0"/><feColorMatrix in="fbSourceGraphic" result="fbSourceGraphicAlpha" values="0 0 0 -1 0 0 0 0 -1 0 0 0 0 -1 0 0 0 0 1 0"/><feColorMatrix in="fbSourceGraphic" values="0.9476 0 0 0.0448545 0.0262 0 0.9476 0 0.0448545 0.0262 0 0 0.9476 0.0448545 0.0262 0 0 0 1 0"/></filter><filter id="e" color-interpolation-filters="sRGB"><feColorMatrix result="fbSourceGraphic" values="1 0 0 -0.397906 -0 0 1 0 -0.397906 -0 0 0 1 -0.397906 -0 0 0 0 1 0"/><feColorMatrix in="fbSourceGraphic" result="fbSourceGraphicAlpha" values="0 0 0 -1 0 0 0 0 -1 0 0 0 0 -1 0 0 0 0 1 0"/><feColorMatrix in="fbSourceGraphic" result="fbSourceGraphic" values="0.643979 0 0 -0.0989675 0.17801 0 0.643979 0 -0.0989675 0.17801 0 0 0.643979 -0.0989675 0.17801 0 0 0 1 0"/><feColorMatrix in="fbSourceGraphic" result="fbSourceGraphicAlpha" values="0 0 0 -1 0 0 0 0 -1 0 0 0 0 -1 0 0 0 0 1 0"/><feColorMatrix in="fbSourceGraphic" values="0.9476 0 0 0.0448545 0.0262 0 0.9476 0 0.0448545 0.0262 0 0 0.9476 0.0448545 0.0262 0 0 0 1 0"/></filter><filter id="f" color-interpolation-filters="sRGB"><feColorMatrix result="fbSourceGraphic" values="1 0 0 -0.397906 -0 0 1 0 -0.397906 -0 0 0 1 -0.397906 -0 0 0 0 1 0"/><feColorMatrix in="fbSourceGraphic" result="fbSourceGraphicAlpha" values="0 0 0 -1 0 0 0 0 -1 0 0 0 0 -1 0 0 0 0 1 0"/><feColorMatrix in="fbSourceGraphic" result="fbSourceGraphic" values="0.643979 0 0 -0.0989675 0.17801 0 0.643979 0 -0.0989675 0.17801 0 0 0.643979 -0.0989675 0.17801 0 0 0 1 0"/><feColorMatrix in="fbSourceGraphic" result="fbSourceGraphicAlpha" values="0 0 0 -1 0 0 0 0 -1 0 0 0 0 -1 0 0 0 0 1 0"/><feColorMatrix in="fbSourceGraphic" values="0.9476 0 0 0.0448545 0.0262 0 0.9476 0 0.0448545 0.0262 0 0 0.9476 0.0448545 0.0262 0 0 0 1 0"/></filter><filter id="g" color-interpolation-filters="sRGB"><feColorMatrix result="fbSourceGraphic" values="1 0 0 -0.397906 -0 0 1 0 -0.397906 -0 0 0 1 -0.397906 -0 0 0 0 1 0"/><feColorMatrix in="fbSourceGraphic" result="fbSourceGraphicAlpha" values="0 0 0 -1 0 0 0 0 -1 0 0 0 0 -1 0 0 0 0 1 0"/><feColorMatrix in="fbSourceGraphic" result="fbSourceGraphic" values="0.643979 0 0 -0.0989675 0.17801 0 0.643979 0 -0.0989675 0.17801 0 0 0.643979 -0.0989675 0.17801 0 0 0 1 0"/><feColorMatrix in="fbSourceGraphic" result="fbSourceGraphicAlpha" values="0 0 0 -1 0 0 0 0 -1 0 0 0 0 -1 0 0 0 0 1 0"/><feColorMatrix in="fbSourceGraphic" values="0.9476 0 0 0.0448545 0.0262 0 0.9476 0 0.0448545 0.0262 0 0 0.9476 0.0448545 0.0262 0 0 0 1 0"/></filter><filter id="h" color-interpolation-filters="sRGB"><feColorMatrix result="fbSourceGraphic" values="1 0 0 -0.397906 -0 0 1 0 -0.397906 -0 0 0 1 -0.397906 -0 0 0 0 1 0"/><feColorMatrix in="fbSourceGraphic" result="fbSourceGraphicAlpha" values="0 0 0 -1 0 0 0 0 -1 0 0 0 0 -1 0 0 0 0 1 0"/><feColorMatrix in="fbSourceGraphic" result="fbSourceGraphic" values="0.643979 0 0 -0.0989675 0.17801 0 0.643979 0 -0.0989675 0.17801 0 0 0.643979 -0.0989675 0.17801 0 0 0 1 0"/><feColorMatrix in="fbSourceGraphic" result="fbSourceGraphicAlpha" values="0 0 0 -1 0 0 0 0 -1 0 0 0 0 -1 0 0 0 0 1 0"/><feColorMatrix in="fbSourceGraphic" values="0.9476 0 0 0.0448545 0.0262 0 0.9476 0 0.0448545 0.0262 0 0 0.9476 0.0448545 0.0262 0 0 0 1 0"/></filter><filter id="i" color-interpolation-filters="sRGB"><feColorMatrix result="fbSourceGraphic" values="1 0 0 -0.397906 -0 0 1 0 -0.397906 -0 0 0 1 -0.397906 -0 0 0 0 1 0"/><feColorMatrix in="fbSourceGraphic" result="fbSourceGraphicAlpha" values="0 0 0 -1 0 0 0 0 -1 0 0 0 0 -1 0 0 0 0 1 0"/><feColorMatrix in="fbSourceGraphic" result="fbSourceGraphic" values="0.643979 0 0 -0.0989675 0.17801 0 0.643979 0 -0.0989675 0.17801 0 0 0.643979 -0.0989675 0.17801 0 0 0 1 0"/><feColorMatrix in="fbSourceGraphic" result="fbSourceGraphicAlpha" values="0 0 0 -1 0 0 0 0 -1 0 0 0 0 -1 0 0 0 0 1 0"/><feColorMatrix in="fbSourceGraphic" values="0.9476 0 0 0.0448545 0.0262 0 0.9476 0 0.0448545 0.0262 0 0 0.9476 0.0448545 0.0262 0 0 0 1 0"/></filter><filter id="j" color-interpolation-filters="sRGB"><feColorMatrix result="fbSourceGraphic" values="1 0 0 -0.397906 -0 0 1 0 -0.397906 -0 0 0 1 -0.397906 -0 0 0 0 1 0"/><feColorMatrix in="fbSourceGraphic" result="fbSourceGraphicAlpha" values="0 0 0 -1 0 0 0 0 -1 0 0 0 0 -1 0 0 0 0 1 0"/><feColorMatrix in="fbSourceGraphic" result="fbSourceGraphic" values="0.643979 0 0 -0.0989675 0.17801 0 0.643979 0 -0.0989675 0.17801 0 0 0.643979 -0.0989675 0.17801 0 0 0 1 0"/><feColorMatrix in="fbSourceGraphic" result="fbSourceGraphicAlpha" values="0 0 0 -1 0 0 0 0 -1 0 0 0 0 -1 0 0 0 0 1 0"/><feColorMatrix in="fbSourceGraphic" values="0.9476 0 0 0.0448545 0.0262 0 0.9476 0 0.0448545 0.0262 0 0 0.9476 0.0448545 0.0262 0 0 0 1 0"/></filter><filter id="k" color-interpolation-filters="sRGB"><feColorMatrix result="fbSourceGraphic" values="1 0 0 -0.397906 -0 0 1 0 -0.397906 -0 0 0 1 -0.397906 -0 0 0 0 1 0"/><feColorMatrix in="fbSourceGraphic" result="fbSourceGraphicAlpha" values="0 0 0 -1 0 0 0 0 -1 0 0 0 0 -1 0 0 0 0 1 0"/><feColorMatrix in="fbSourceGraphic" result="fbSourceGraphic" values="0.643979 0 0 -0.0989675 0.17801 0 0.643979 0 -0.0989675 0.17801 0 0 0.643979 -0.0989675 0.17801 0 0 0 1 0"/><feColorMatrix in="fbSourceGraphic" result="fbSourceGraphicAlpha" values="0 0 0 -1 0 0 0 0 -1 0 0 0 0 -1 0 0 0 0 1 0"/><feColorMatrix in="fbSourceGraphic" values="0.9476 0 0 0.0448545 0.0262 0 0.9476 0 0.0448545 0.0262 0 0 0.9476 0.0448545 0.0262 0 0 0 1 0"/></filter><filter id="l" color-interpolation-filters="sRGB"><feColorMatrix result="fbSourceGraphic" values="1 0 0 -0.397906 -0 0 1 0 -0.397906 -0 0 0 1 -0.397906 -0 0 0 0 1 0"/><feColorMatrix in="fbSourceGraphic" result="fbSourceGraphicAlpha" values="0 0 0 -1 0 0 0 0 -1 0 0 0 0 -1 0 0 0 0 1 0"/><feColorMatrix in="fbSourceGraphic" result="fbSourceGraphic" values="0.643979 0 0 -0.0989675 0.17801 0 0.643979 0 -0.0989675 0.17801 0 0 0.643979 -0.0989675 0.17801 0 0 0 1 0"/><feColorMatrix in="fbSourceGraphic" result="fbSourceGraphicAlpha" values="0 0 0 -1 0 0 0 0 -1 0 0 0 0 -1 0 0 0 0 1 0"/><feColorMatrix in="fbSourceGraphic" values="0.9476 0 0 0.0448545 0.0262 0 0.9476 0 0.0448545 0.0262 0 0 0.9476 0.0448545 0.0262 0 0 0 1 0"/></filter></defs><path fill="#ff5a5a" d="M219 419c23 0 42-19 42-43V264H149c-24 0-43 19-43 42 0 62 51 113 113 113z" filter="url(#a)"/><path fill="#ff464b" d="M304 419c-23 0-43-19-43-43V264h113c23 0 43 19 43 42 0 62-51 113-113 113z" filter="url(#b)"/><path fill="#ff5a5a" d="M304 108c-23 0-43 20-43 43v113h113c23 0 43-20 43-43 0-62-51-113-113-113z" filter="url(#c)"/><path fill="#ff464b" d="M219 108c23 0 42 20 42 43v113H149c-24 0-43-20-43-43 0-62 51-113 113-113z" filter="url(#d)"/><path fill="#ff8c4e" d="M261 199c-35 0-64 29-64 65h64z" filter="url(#e)"/><path fill="#ffa555" d="M326 264c0-36-29-65-65-65v65z" filter="url(#f)"/><path fill="#ff8c4e" d="M261 328c36 0 65-29 65-64h-65z" filter="url(#g)"/><path fill="#ffa555" d="M197 264c0 35 29 64 64 64v-64z" filter="url(#h)"/><path fill="#d7464b" d="M350 196c-2-2-5-3-8-1l-52 40 40-52a5 5 0 1 0-8-7l-64 84-84 64a5 5 0 1 0 7 8l52-40-40 52a5 5 0 1 0 8 7l64-84 84-63c2-2 3-6 1-8z" filter="url(#i)"/><path fill="#cd4146" d="M349 324l-84-64-64-84a5 5 0 0 0-8 7l40 52-52-40a5 5 0 1 0-7 9l84 63 64 84a5 5 0 1 0 8-7l-40-52 52 40a5 5 0 0 0 8-1c2-2 1-6-1-7z" filter="url(#j)"/><path fill="#91323c" d="M310 264c0-8-5-14-12-16a16 16 0 0 0-21-21 16 16 0 0 0-31 0 16 16 0 0 0-21 21 16 16 0 0 0 0 31 16 16 0 0 0 21 21 16 16 0 0 0 31 0 16 16 0 0 0 21-21c7-2 12-8 12-15z" filter="url(#k)"/><path fill="#af3a41" d="M261 296a32 32 0 1 1 0-65 32 32 0 0 1 0 65zm0-54a21 21 0 1 0 0 43 21 21 0 0 0 0-43z" filter="url(#l)"/></svg>