<svg xmlns="http://www.w3.org/2000/svg" id="Calque_5" data-name="Calque 5" viewBox="0 0 841.9 595.3"><defs><style>.cls-2{fill:#e7aa5a}.cls-3{fill:#272f32}.cls-7{fill:#e53636}</style></defs><path fill="#e7aa5a" d="M91.2 279h659.5v240.2H91.2z" opacity=".4"/><path d="M414.4 531.3L397.8 550l.9 3.1 15.7-17.7v-4zM399.7 556c2.4 7 5.2 10.7 7 10.6 2.8-.2 7-10.3 7.6-27.1z" class="cls-2"/><circle cx="399" cy="514.1" r="1.9" class="cls-2"/><path d="M403 509a.9.9 0 1 1-1-.7.9.9 0 0 1 1 .8zM408.5 512.1a1.4 1.4 0 1 1-1.5-1.3 1.4 1.4 0 0 1 1.5 1.3zM413.2 518.1c-1.2-7.9-9 .8-18.6 1.1 0 0 0 6.7.2 10.2a117.2 117.2 0 0 0 1.7 14.3l17.4-19.6-.7-6zm-11.8 8a1 1 0 1 1 .8-1 1 1 0 0 1-.8 1zm2.9-4.5a1.2 1.2 0 0 1-1.3-1.2 1.2 1.2 0 1 1 1.2 1.2zM447.3 529.4L430.6 548l.9 3 15.7-17.6v-4zM432.6 554c2.4 7 5.2 10.8 7 10.7 2.8-.2 7-10.3 7.6-27.1z" class="cls-2"/><circle cx="431.9" cy="512.1" r="1.9" class="cls-2"/><path d="M435.9 507.1a.9.9 0 0 1-.8 1 .9.9 0 0 1-1-.9.9.9 0 0 1 1.8 0zM441.4 510.2a1.4 1.4 0 1 1-1.5-1.4 1.4 1.4 0 0 1 1.5 1.4zM446 516.2c-1-8-8.9.8-18.5 1 0 0 0 6.8.2 10.3a117.7 117.7 0 0 0 1.7 14.2l17.4-19.5-.7-6zm-11.8 8a1 1 0 1 1 1-1 1 1 0 0 1-1 1zm3-4.6a1.2 1.2 0 1 1 1.1-1.2 1.2 1.2 0 0 1-1.1 1.3z" class="cls-2"/><path d="M405.7 571.3l.7 12.7-8.4 2.2a.9.9 0 0 0-.6 1 .8.8 0 0 0 .9.7l19.3-1a.9.9 0 0 0 .8-1 .8.8 0 0 0-.7-.8l-8.7-1.3-.8-12.7c3.6-1 6.6-5.6 8.5-13.3 2.1-8 2.9-18.7 2.2-29.8a110.3 110.3 0 0 0-4-24.7 1.3 1.3 0 0 0-1.4-1l-21.1 1.3a1.3 1.3 0 0 0-1.2 1 110.2 110.2 0 0 0-1.2 25c.7 11.2 2.7 21.6 5.7 29.4 2.9 7.4 6.3 11.6 10 12.3zM393.6 506l19-1.1a109.2 109.2 0 0 1 3.8 23.1c.6 10.9-.1 21.2-2.1 29-1.9 7.1-4.6 11.5-7.5 11.7s-6-3.9-8.7-10.7a98.8 98.8 0 0 1-5.5-28.6 109.6 109.6 0 0 1 1-23.4zM438.6 569.3l.8 12.7-8.5 2.3a.9.9 0 0 0-.6 1 .9.9 0 0 0 .9.7l19.3-1.1a.9.9 0 0 0 0-1.7l-8.6-1.3-.7-12.7c3.6-1 6.5-5.6 8.5-13.4 2-8 2.8-18.6 2.1-29.7a110.3 110.3 0 0 0-4-24.7 1.3 1.3 0 0 0-1.4-1l-21 1.3a1.3 1.3 0 0 0-1.3 1 110.3 110.3 0 0 0-1.1 25 101 101 0 0 0 5.6 29.4c2.9 7.4 6.3 11.6 10 12.2zm-12.1-65l19-1.2a109.3 109.3 0 0 1 3.8 23.1c.6 10.9-.2 21.2-2.1 29-1.9 7.1-4.6 11.5-7.5 11.7s-6-3.9-8.7-10.7a98.5 98.5 0 0 1-5.5-28.6 108.9 108.9 0 0 1 1-23.4zM419.4 500.8a1.3 1.3 0 0 0 1.2-1.4l-.5-7.2a1.3 1.3 0 1 0-2.5.1l.4 7.3a1.3 1.3 0 0 0 1.4 1.2zM422.6 500.6a1.3 1.3 0 0 0 1-.4l3.6-4.2a1.3 1.3 0 1 0-1.9-1.7l-3.7 4.2a1.3 1.3 0 0 0 .1 1.8 1.3 1.3 0 0 0 1 .3zM415.1 500.7a1.3 1.3 0 0 0 1 .3 1.3 1.3 0 0 0 .8-.4 1.3 1.3 0 0 0 0-1.9l-4.2-3.7a1.3 1.3 0 0 0-1.7 2z" class="cls-3"/><text fill="#3a2a19" font-family="Gothic821CondensedBT-Regular,Gothic821 Cn BT" font-size="53.2" transform="matrix(.94 0 0 1 191.5 350)">RENDE<tspan x="119.1" y="0" letter-spacing="0em">Z-</tspan><tspan x="151.7" y="0">VOUS À BESANCON</tspan><tspan x="42.7" y="63.8">Place du 8 Septembre</tspan><tspan x="-17.4" y="127.6">VENDREDI 4 janvier À 18H30</tspan></text><path d="M259 135.5h320.9v47.6H259z" class="cls-2"/><path fill="#da1115" d="M223.2 186.4h396V234h-396z"/><path d="M739.4 161.3a8.6 8.6 0 0 0-7-9.1 8.6 8.6 0 0 0-15.4-7.8 4 4 0 0 0-.4-.4 8.7 8.7 0 1 0-11.8 12.6l.2.2h-.2a8.6 8.6 0 0 0 7.9 15.4 8.6 8.6 0 0 0 17-2.4 4 4 0 0 0 0-.6h.4a8.7 8.7 0 0 0 9.3-7.9zm-11.6 3.9a1.3 1.3 0 0 1-1.5-1.2 1 1 0 0 1 0-.4l-3.9-2.1a4.4 4.4 0 0 1-2.3 1.7l1 4.3a1.3 1.3 0 1 1-1 .4 1.1 1.1 0 0 1 .3-.2l-1-4.3h-.2a4.3 4.3 0 0 1-2.2-.4l-2.1 3.9a1.3 1.3 0 0 1 .4.8 1.3 1.3 0 1 1-1.4-1.2 1.2 1.2 0 0 1 .3 0l2.2-3.9a4.3 4.3 0 0 1-1.8-2.5l-4.4.8a1.3 1.3 0 0 1-.4.9 1.3 1.3 0 1 1 0-2 1.1 1.1 0 0 1 .2.4l4.4-.8a4.3 4.3 0 0 1 .4-2.2l-3.8-2a1.3 1.3 0 0 1-.8.4 1.3 1.3 0 1 1 1.2-1.5 1.2 1.2 0 0 1 0 .4l3.8 2.2a4.3 4.3 0 0 1 2.4-1.8l-1-4.3a1.3 1.3 0 0 1-1-.4 1.3 1.3 0 1 1 2 0 1.7 1.7 0 0 1-.3.2l1 4.3h.2a4.3 4.3 0 0 1 2.1.4l2.2-3.9a1.3 1.3 0 1 1 1 .4 1.6 1.6 0 0 1-.4 0l-2.1 4a4.3 4.3 0 0 1 1.7 2.4l4.3-.8a1.3 1.3 0 0 1 .4-.9 1.3 1.3 0 1 1 0 2 1 1 0 0 1-.2-.4l-4.3.8a4.4 4.4 0 0 1-.4 2.2l3.9 2.1a1.3 1.3 0 0 1 .8-.4 1.3 1.3 0 0 1 .3 2.6z" class="cls-7"/><path d="M702.3 155.8c-4.5-1.5-14.5-4.5-18-3.4 0 0 11.1 4 17.4 4.4-3 1.9-13.6 7-24.2-5.9 0-.2 15.5-9 24.8 4.9zM700 148.7c-1.5-4.5-5-14.4-8-16.6 0 0 3.5 11.4 7 16.7-3.4-1.3-13.8-6.7-9.9-23 .3 0 16.6 7 10.9 22.9z" class="cls-2"/><path d="M680 233.5a1.7 1.7 0 0 0 0-3.5 1.7 1.7 0 0 0 0 3.5zM621 155a1.7 1.7 0 0 0 0-3.4 1.7 1.7 0 0 0 0 3.5z" class="cls-7"/><path d="M648.4 236.4c3.7 0 3.7-5.8 0-5.8s-3.7 5.8 0 5.8zM711.3 202.4c3.7 0 3.7-5.8 0-5.8s-3.8 5.8 0 5.8z" class="cls-2"/><path d="M617.6 179.8a1.7 1.7 0 0 0 0-3.5 1.7 1.7 0 0 0 0 3.5z" class="cls-7"/><path d="M638.5 171.1a6.7 6.7 0 0 0 .3 9 6.7 6.7 0 0 0 6.2 11.7 3.3 3.3 0 0 0 0 .4 6.7 6.7 0 0 0 13.1-2.7v-.2h.1a6.7 6.7 0 0 0 2-13.2 6.7 6.7 0 0 0-11.9-6.1 3.6 3.6 0 0 0-.2.5 2.9 2.9 0 0 0-.2-.3 6.7 6.7 0 0 0-9.4 1zm9 2.8a1 1 0 0 1 .4 1.4.7.7 0 0 1-.2.2l1.5 3.1a3.3 3.3 0 0 1 2.3 0l1.3-3.2a1 1 0 0 1-.4-.6 1 1 0 1 1 1.2.8 1 1 0 0 1-.3 0l-1.3 3.2h.1a3.3 3.3 0 0 1 1.2 1.2l3.1-1.5a1 1 0 0 1 .1-.7 1 1 0 1 1 .4 1.4.8.8 0 0 1-.2-.2l-3.1 1.5a3.4 3.4 0 0 1 0 2.4l3 1.4a1 1 0 0 1 .7-.3 1 1 0 1 1-.8 1.2 1 1 0 0 1 0-.3l-3.2-1.5a3.4 3.4 0 0 1-1.2 1.2l1.5 3.1a1 1 0 0 1 1.1 1.5 1 1 0 0 1-1.4.4 1 1 0 0 1-.4-1.4 1.4 1.4 0 0 1 .2-.2l-1.5-3.1a3.4 3.4 0 0 1-2.2 0l-1.3 3.2a1 1 0 0 1 .4.6 1 1 0 1 1-2 .4 1 1 0 0 1 .8-1.2 1.4 1.4 0 0 1 .3 0l1.3-3.2a.8.8 0 0 1-.1 0 3.4 3.4 0 0 1-1.3-1.3l-3 1.5a1 1 0 0 1-.1.8 1 1 0 0 1-1.5.4 1 1 0 0 1-.3-1.5 1 1 0 0 1 1.4-.3 1 1 0 0 1 .2.2l3.1-1.6a3.3 3.3 0 0 1 0-2.3l-3.1-1.5a1 1 0 0 1-1.8-.5 1 1 0 0 1 .8-1.1 1 1 0 0 1 1.2.8.8.8 0 0 1 0 .3l3.1 1.5a3.3 3.3 0 0 1 1.2-1.2l-1.5-3.1a1 1 0 0 1-.7-.1 1 1 0 1 1 1-1.8z" class="cls-2"/><path d="M659.4 191.2c2.2 3 7 9.3 9.9 10.2 0 0-5.3-7.5-9.1-10.6 2.7.2 11.7 1.6 12.7 14.5-.2.1-13.9-1.2-13.5-14.2zM657.7 196.7c-1.1 3.5-3.3 11.2-2.4 14 0 0 2.9-8.7 3.1-13.6 1.5 2.3 5.7 10.3-4 18.8-.3 0-7.4-11.8 3.3-19.2zM640.8 125.7l-.3.6-11.5-6 1-1.6 10.8 7zM654.3 134.2l.3-.6 14.6 7.7-.9 1.7-14-8.8z" class="cls-7"/><path d="M644.8 128.5l-2.2-5.2 4.4 3.5 3.4-4.5-.8 5.6 5.6.6-5.3 2.1 2.3 5.2-4.4-3.5-3.4 4.5.8-5.5-5.6-.7 5.2-2.1z" class="cls-2"/><path d="M646.5 122.1l-.6.1-3.3-16.3 1.8-.3 2.1 16.5zM648.5 137.8l.6-.1 2.6 12.5-1.8.3-1.4-12.7zM654 125.3l-.4-.5 10.9-9.3 1.1 1.5-11.6 8.3zM641 134.5l.4.5-12.7 10.6-1.2-1.5 13.5-9.6zM637.3 130.2v.6l-8.5.9-.1-1.8 8.6.3zM658.2 128.2l-.1-.6 8.5-1.3v1.9h-8.4zM642.8 119.8l-.6.2-4-7.5 1.7-.8 2.9 8.1zM652.3 138.5l.6-.3 4.3 7.4-1.7.7-3.2-7.8zM652.1 119.5l-.5-.3 3.7-7.7 1.6.9-4.8 7.1zM642.9 138.4l.5.3-3.3 7.8-1.6-.9 4.4-7.2zM160.3 191.5a6.7 6.7 0 0 0-.1 9 6.7 6.7 0 0 0 5.5 12.1 3.3 3.3 0 0 0 0 .5 6.7 6.7 0 0 0 13.3-2 .6.6 0 0 0 0-.1h.2a6.7 6.7 0 0 0 2.6-13.2 6.7 6.7 0 0 0-11.5-6.8 3.5 3.5 0 0 0-.3.5l-.2-.3a6.7 6.7 0 0 0-9.5.3zm9 3.3a1 1 0 0 1 .3 1.4.7.7 0 0 1-.2.2l1.3 3.2a3.4 3.4 0 0 1 2.3 0l1.5-3a1 1 0 1 1 .8.2 1 1 0 0 1-.3 0l-1.5 3.2h.1a3.4 3.4 0 0 1 1.2 1.3l3.1-1.3a1 1 0 0 1 .2-.7 1 1 0 1 1 .3 1.4 1 1 0 0 1-.2-.2l-3.2 1.3a3.4 3.4 0 0 1-.1 2.4l3 1.6a1 1 0 0 1 .6-.3 1 1 0 0 1 1.2 1 1 1 0 0 1-1 1 1 1 0 0 1-1-.9 1 1 0 0 1 0-.3l-3-1.6a3.3 3.3 0 0 1-1.4 1.1l1.4 3.2a1 1 0 0 1 .7.2 1 1 0 0 1-1.2 1.7 1 1 0 0 1 0-1.6l-1.4-3.2a3.4 3.4 0 0 1-2.3 0l-1.5 3a1 1 0 0 1 .4.6 1 1 0 1 1-1.2-.8 1 1 0 0 1 .3 0l1.5-3.2h-.1a3.3 3.3 0 0 1-1.2-1.3l-3.2 1.3a1 1 0 0 1-.1.7 1 1 0 1 1-.3-1.4.8.8 0 0 1 .2.2l3.2-1.3a3.4 3.4 0 0 1 .1-2.4l-3-1.6a1 1 0 0 1-.6.3 1 1 0 1 1 .9-1.1 1 1 0 0 1 0 .3l3 1.6a3.3 3.3 0 0 1 1.3-1.1l-1.3-3.2a1 1 0 0 1-.8-.2 1 1 0 1 1 1.2-1.7z" class="cls-7"/><path d="M180.2 212.8c2 3.1 6.6 9.8 9.3 10.8 0 0-4.9-7.8-8.5-11 2.8.2 11.7 2.2 12 15.2-.2.1-13.9-2-12.8-15zM178.1 218.3c-1.2 3.4-3.9 11-3 13.9 0 0 3.3-8.6 3.8-13.5 1.4 2.4 5 10.8-5.2 18.7-.2 0-6.6-12.3 4.4-19.2zM131.6 188.9a8 8 0 0 0 7.2-8 8 8 0 0 0 4.4-15.4 4.5 4.5 0 0 0 .3-.4 8 8 0 0 0-13.6-8.6v.1a1.1 1.1 0 0 0-.2-.1 8 8 0 0 0-12.7 9.8 8 8 0 0 0 5.2 15.3 5.6 5.6 0 0 0 .5-.3 2.8 2.8 0 0 0 0 .4 8 8 0 0 0 9 7.2zm-5.5-10a1.2 1.2 0 0 1 .8-1.6 1.1 1.1 0 0 1 .4 0l1.2-4a4 4 0 0 1-2-1.7l-3.7 1.6a1.2 1.2 0 0 1-.2.9 1.3 1.3 0 1 1-.4-1.7 1.2 1.2 0 0 1 .3.2l3.8-1.6a1.1 1.1 0 0 1 0-.2 4 4 0 0 1 0-2l-4-1.3a1.2 1.2 0 0 1-.7.5 1.3 1.3 0 1 1 .8-1.5 1 1 0 0 1 0 .3l4 1.3a4 4 0 0 1 2-2.1l-1.4-3.8a1.3 1.3 0 0 1-.9-.2 1.3 1.3 0 1 1 1.7-.3 1 1 0 0 1-.2.2l1.5 3.9a4.2 4.2 0 0 1 2 0l1.3-4a1.2 1.2 0 0 1-.5-.7 1.2 1.2 0 1 1 1.5.9 1.1 1.1 0 0 1-.4 0l-1.2 4a4 4 0 0 1 2 1.8l3.7-1.7a1.3 1.3 0 0 1 .2-.8 1.3 1.3 0 1 1 .4 1.7 1.5 1.5 0 0 1-.3-.3l-3.8 1.7v.2a4 4 0 0 1 0 2l4 1.3a1.3 1.3 0 0 1 .7-.6 1.3 1.3 0 1 1-.8 1.6 1.4 1.4 0 0 1 0-.4l-4-1.2a4 4 0 0 1-2 2l1.5 3.9a1.3 1.3 0 0 1 .9.2 1.3 1.3 0 1 1-1.8.3 1.1 1.1 0 0 1 .3-.3l-1.5-3.8a4.1 4.1 0 0 1-2 0l-1.3 3.9a1.3 1.3 0 0 1 .5.7 1.2 1.2 0 1 1-2.4.7z" class="cls-2"/><path d="M130.2 154c.6-4.4 1.7-14 0-17.1 0 0-1.6 10.9-.9 16.7-2.3-2.4-8.8-11.2 1.1-23.2.2 0 11 12.7-.2 23.6zM136.3 150.7c4-2.2 12.3-7 13.8-10.3 0 0-9.8 5.2-14 9.2.6-3.2 3.7-13.7 19.2-12.9.2.2-3.5 16.4-19 14zM145.7 240.9a1.7 1.7 0 0 0 0-3.5 1.7 1.7 0 0 0 0 3.5zM167.2 248a1.7 1.7 0 0 0 0-3.6 1.7 1.7 0 0 0 0 3.5zM201.9 248a1.7 1.7 0 0 0 0-3.6 1.7 1.7 0 0 0 0 3.5zM111.7 122a1.7 1.7 0 0 0 0-3.5 1.7 1.7 0 0 0 0 3.4z" class="cls-7"/><path d="M120 233.6c3.7 0 3.7-5.8 0-5.8s-3.7 5.8 0 5.8zM163.5 166c3.7 0 3.7-5.8 0-5.8s-3.7 5.8 0 5.8z" class="cls-2"/><path d="M113.3 206.2c3.8 0 3.8-5.8 0-5.8s-3.7 5.8 0 5.8z" class="cls-7"/><path d="M211.7 212.5c3.8 0 3.8-5.8 0-5.8s-3.7 5.8 0 5.8z" class="cls-2"/><path d="M140.3 214.3a1.7 1.7 0 0 0 0-3.5 1.7 1.7 0 0 0 0 3.5zM217.5 156.4v-.7l15.8-.1-.1 2.3-15.7-1.5zM198.2 154.8v.8l-20.3-.1.1-2.3 20.2 1.6z" class="cls-7"/><path d="M211.5 155.7l5.4 4.3-6.8-1.3-1.1 6.8-2.2-6.5-6.5 2.5 4.5-5.2-5.3-4.4 6.8 1.3 1.1-6.8 2.2 6.5 6.5-2.4-4.6 5.2z" class="cls-2"/><path d="M213.3 163.6l.6-.4 12.8 15.7-1.8 1.3-11.6-16.6zM202.3 147.7l-.6.4-9.8-12 1.8-1.4 8.6 13zM203.4 164.3l.7.3-6.5 16.2-2.1-1 7.9-15.5zM212.3 147l-.7-.3 7.8-18.6 2.1.9-9.2 18zM218.8 149.6l-.4-.7 8.7-5.7 1.1 1.9-9.4 4.5zM197.3 163.5l.4.7-8.4 6.1-1.2-2 9.2-4.8zM218.7 164l.5-.6 8.6 5.9-1.5 1.8-7.6-7.1zM197.9 149.1l-.5.6-8.8-5.6 1.4-1.8 7.9 6.8zM208.7 169.5h.7l.4 10.4h-2.3l1.2-10.4zM208.1 143.9h-.7l-.8-10.4 2.2.1-.7 10.3z" class="cls-7"/><text fill="#fff" font-family="MoonFlowerBold,Moon Flower Bold" font-size="39.9" transform="matrix(.94 0 0 1 230.7 221.3)">on va trinquer et ça va swinguer !</text><text fill="#010101" font-family="MoonFlowerBold,Moon Flower Bold" font-size="39.9" transform="matrix(.94 0 0 1 271 172.5)">Apportez Galette et bulles,</text><text fill="#da1115" font-family="MoonFlowerBold,Moon Flower Bold" font-size="98.6" transform="matrix(.94 0 0 1 177.1 91.2)">COQUELICOTS BULLES</text><path d="M740.4 289.3a15.2 15.2 0 0 1-9.4-1.7 3.6 3.6 0 0 0-2 4.6h-.2a3.6 3.6 0 1 0 1 7.2h.1a.2.2 0 0 0 0 .1 6.1 6.1 0 1 0 10.8-4.8l-.3-.1.2-.2a3.6 3.6 0 0 0-.2-5.1zm-1.8 4.8a.6.6 0 0 1-.7.2.6.6 0 0 1-.1-.1l-1.8.7a1.8 1.8 0 0 1 0 1.2l1.7.8a.6.6 0 0 1 1 .3.6.6 0 0 1-.5.7.6.6 0 0 1-.6-.5.4.4 0 0 1 0-.2l-1.7-.8a1.8 1.8 0 0 1-.7.7l.7 1.7a.6.6 0 0 1 .4 0 .6.6 0 1 1-.8.2.4.4 0 0 1 .1 0l-.7-1.8a1.8 1.8 0 0 1-1.3 0l-.8 1.6a.5.5 0 0 1 .1.3.6.6 0 0 1-.5.7.6.6 0 0 1-.6-.6.6.6 0 0 1 .5-.6.4.4 0 0 1 .2 0l.9-1.6a1.8 1.8 0 0 1-.7-.7l-1.7.7a.6.6 0 0 1-.8.6.6.6 0 0 1-.2-.8.6.6 0 0 1 .8-.2.6.6 0 0 1 0 .1l1.8-.7a1.8 1.8 0 0 1 0-1.2l-1.7-.8a.5.5 0 0 1-.3.2.6.6 0 0 1-.6-.5.6.6 0 1 1 1-.2.5.5 0 0 1 0 .2l1.8.8a1.9 1.9 0 0 1 .7-.7l-.8-1.7a.6.6 0 0 1-.4 0 .6.6 0 1 1 .7-1 .6.6 0 0 1 .1.8.6.6 0 0 1-.1 0l.7 1.8a1.9 1.9 0 0 1 1.3 0l.9-1.6a.5.5 0 0 1-.2-.3.6.6 0 0 1 .5-.6.6.6 0 0 1 .6.5.6.6 0 0 1-.5.6h-.1l-1 1.6a1.9 1.9 0 0 1 .7.7l1.7-.7a.5.5 0 0 1 .1-.4.6.6 0 0 1 .8-.2.6.6 0 0 1 .1.8z" class="cls-7"/><path d="M729 300c-1.8 1-5.4 3.6-6 5a37.4 37.4 0 0 0 6-4.6c0 1.5-1.2 6.3-8.2 6.4 0 0 1.1-7.4 8.1-6.8zM726 299c-1.9-.8-6-2.2-7.5-1.7a38 38 0 0 0 7.2 2c-1.3.8-5.8 2.8-10-2.8 0 0 6.6-3.5 10.3 2.4z" class="cls-2"/><path d="M742.5 511.6a3.6 3.6 0 0 0 .1-4.9 3.6 3.6 0 0 0-3-6.5 2 2 0 0 0 0-.3 3.6 3.6 0 1 0-7.2 1.1 3.6 3.6 0 0 0-1.5 7.2 3.6 3.6 0 0 0 6.2 3.7 2 2 0 0 0 .2-.3.9.9 0 0 0 .1.2 3.6 3.6 0 0 0 5.1-.2zm-4.8-1.8a.6.6 0 0 1-.2-.8.4.4 0 0 1 .1 0l-.7-1.8a1.8 1.8 0 0 1-1.2 0l-.8 1.7a.6.6 0 0 1 .2.3.6.6 0 0 1-.5.6.6.6 0 0 1-.6-.4.6.6 0 0 1 .4-.7h.2l.8-1.6a1.8 1.8 0 0 1-.7-.8l-1.7.7a.6.6 0 0 1 0 .4.6.6 0 0 1-.9.2.6.6 0 1 1 .7-1 .5.5 0 0 1 0 .1l1.8-.7a1.8 1.8 0 0 1 0-1.3l-1.6-.9a.6.6 0 0 1-.3.2.6.6 0 0 1-.6-.5.6.6 0 1 1 1-.1.4.4 0 0 1 0 .2l1.7.8a1.9 1.9 0 0 1 .7-.6l-.7-1.7a.6.6 0 0 1-.4 0 .6.6 0 1 1 .6-1 .6.6 0 0 1 .2.8.6.6 0 0 1-.1 0l.7 1.8a1.9 1.9 0 0 1 1.2 0l.8-1.7a.5.5 0 0 1-.2-.3.6.6 0 0 1 .5-.6.6.6 0 1 1 .1 1 .5.5 0 0 1-.1 0l-.8 1.8a1.9 1.9 0 0 1 .7.7l1.7-.8a.6.6 0 0 1 0-.4.6.6 0 1 1 1 .7.6.6 0 0 1-.8.1.6.6 0 0 1-.1-.1l-1.7.7a1.9 1.9 0 0 1 0 1.3l1.6.9a.7.7 0 0 1 .3-.2.6.6 0 0 1 .6.5.6.6 0 1 1-1 .1.4.4 0 0 1 0-.1l-1.7-1a1.8 1.8 0 0 1-.7.7l.7 1.7a.6.6 0 0 1 .4.1.6.6 0 0 1-.6 1z" class="cls-7"/><path d="M731.8 500c-1.1-1.6-3.6-5.2-5-5.8a38 38 0 0 0 4.6 6c-1.5-.1-6.3-1.2-6.4-8.2 0 0 7.4 1 6.8 8zM732.9 497.1c.7-1.8 2.1-6 1.7-7.5a37.4 37.4 0 0 0-2.1 7.3c-.8-1.3-2.8-5.8 2.8-10.1 0 0 3.6 6.6-2.4 10.3z" class="cls-2"/><path d="M101.8 511.6a3.6 3.6 0 0 0 4.9.1 3.6 3.6 0 0 0 6.5-3 2.1 2.1 0 0 0 .3 0 3.6 3.6 0 1 0-1-7.2h-.2a3.6 3.6 0 0 0-7-1.5 3.6 3.6 0 0 0-3.8 6.3 1.2 1.2 0 0 0 .3 0 1.8 1.8 0 0 0-.1.2 3.6 3.6 0 0 0 .1 5.1zm1.8-4.8a.6.6 0 0 1 .8-.2.6.6 0 0 1 .1.1l1.7-.7a1.9 1.9 0 0 1 0-1.2l-1.6-.8a.5.5 0 0 1-.4.2.6.6 0 0 1-.6-.5.6.6 0 0 1 .5-.6.6.6 0 0 1 .6.5.5.5 0 0 1 0 .1l1.7.8a1.8 1.8 0 0 1 .7-.7l-.8-1.7a.6.6 0 0 1-.3 0 .6.6 0 1 1 .6-1 .6.6 0 0 1 .1.8.6.6 0 0 1 0 .1l.6 1.7a1.9 1.9 0 0 1 1.3 0l1-1.5a.6.6 0 0 1-.3-.4.6.6 0 0 1 .5-.6.6.6 0 0 1 .7.5.6.6 0 0 1-.5.6h-.2l-.9 1.6a1.7 1.7 0 0 1 .6.7l1.7-.7a.5.5 0 0 1 .1-.4.6.6 0 1 1 .2.8.4.4 0 0 1-.1-.1l-1.8.7a1.8 1.8 0 0 1 0 1.2l1.7.8a.6.6 0 0 1 .4-.2.6.6 0 0 1 .6.5.6.6 0 0 1-.5.6.6.6 0 0 1-.6-.4.8.8 0 0 1 0-.2l-1.7-.8a1.7 1.7 0 0 1-.7.7l.7 1.7a.6.6 0 0 1 .4 0 .6.6 0 0 1 .2.9.6.6 0 0 1-.8.1.6.6 0 0 1-.2-.8.3.3 0 0 1 .2 0l-.8-1.8a1.8 1.8 0 0 1-1.3 0l-.8 1.6a.6.6 0 0 1-.4 1 .6.6 0 0 1-.6-.5.6.6 0 0 1 .5-.6.4.4 0 0 1 .2 0l.9-1.7a1.8 1.8 0 0 1-.6-.7l-1.7.7a.6.6 0 0 1-.1.4.6.6 0 1 1-1-.6z" class="cls-7"/><path d="M113.3 500.9c1.7-1 5.3-3.6 5.9-5a37.4 37.4 0 0 0-6 4.6c.1-1.5 1.2-6.3 8.2-6.4.1 0-1 7.4-8 6.8zM116.3 502c1.9.7 6 2.1 7.5 1.7a37.7 37.7 0 0 0-7.2-2c1.2-.8 5.7-2.9 10 2.7 0 .1-6.6 3.6-10.3-2.4z" class="cls-2"/><path d="M98.6 303.3a3.6 3.6 0 0 0 4.9.1 3.6 3.6 0 0 0 6.5-3 1 1 0 0 0 .3 0 3.6 3.6 0 1 0-1.1-7.2 3.6 3.6 0 0 0-7.2-1.5 3.6 3.6 0 0 0-3.7 6.3 1.2 1.2 0 0 0 .3.1 1.8 1.8 0 0 0-.1.1 3.6 3.6 0 0 0 .1 5.1zm1.8-4.8a.6.6 0 0 1 .8-.2l.1.1 1.7-.7a1.9 1.9 0 0 1 0-1.2l-1.6-.8a.6.6 0 0 1-.4.2.6.6 0 1 1-.1-1.1.6.6 0 0 1 .6.5.8.8 0 0 1 0 .1l1.7.8a1.8 1.8 0 0 1 .7-.7l-.8-1.7a.6.6 0 1 1 .4-.2.7.7 0 0 1-.1.1l.7 1.7a1.9 1.9 0 0 1 1.3 0l.9-1.5a.6.6 0 0 1-.2-.4.6.6 0 0 1 1.1-.1.6.6 0 0 1-.5.6.4.4 0 0 1-.1 0l-1 1.6a1.9 1.9 0 0 1 .7.7l1.7-.7a.6.6 0 0 1 .9-.5.6.6 0 0 1-.6.9l-.2-.1-1.7.7a1.9 1.9 0 0 1 0 1.2l1.7.8a.5.5 0 0 1 .3-.2.6.6 0 0 1 .7.5.6.6 0 0 1-.5.7.6.6 0 0 1-.6-.5.4.4 0 0 1 0-.2l-1.7-.8a1.8 1.8 0 0 1-.7.7l.7 1.7a.6.6 0 0 1 .4 0 .6.6 0 1 1-.8.2.4.4 0 0 1 .1 0l-.7-1.8a1.8 1.8 0 0 1-1.3 0l-.9 1.6a.6.6 0 0 1-.3 1 .6.6 0 0 1-.6-.5.6.6 0 0 1 .5-.6.4.4 0 0 1 .2 0l.8-1.7a1.8 1.8 0 0 1-.6-.7l-1.7.8a.6.6 0 0 1 0 .3.6.6 0 0 1-1-.6z" class="cls-7"/><path d="M110.1 292.6c1.7-1 5.3-3.6 5.9-5a38.2 38.2 0 0 0-6 4.6c.1-1.5 1.2-6.3 8.2-6.4.1 0-1 7.4-8 6.8zM113 293.7c2 .7 6 2.1 7.6 1.7a37 37 0 0 0-7.3-2c1.3-.8 5.8-2.8 10.1 2.7 0 .1-6.6 3.6-10.3-2.4zM144.3 224.3c-11.1 3.7-10.3-2.3-17-2.6-3.8-.2-3.3 3.5-2.7 4.1a6.5 6.5 0 0 0 4.5 2.6v.1a7 7 0 0 1-5-2.3 3.6 3.6 0 0 1-.8-2 1.2 1.2 0 0 0-.6-.9 6.3 6.3 0 0 0-2.2-.7 6.3 6.3 0 0 0-12.6 1.7s.9.4 1.1 1a5.8 5.8 0 0 1 .2 2.4 4.7 4.7 0 0 0-.7-2.2 2 2 0 0 0-1.6-.8 4.6 4.6 0 0 0-2.1.5 4.7 4.7 0 0 0 3 9 2.8 2.8 0 0 1 .5-1.8 3 3 0 0 1 2.3-1 2.6 2.6 0 0 0-1.9 1.3c-.6.9-1 4.5 3 4.2a3.1 3.1 0 0 0 1.8-.8 3.4 3.4 0 0 0 6.3.6 4.2 4.2 0 0 1-2-2.6c-.5-2.4 1.4-3.6 2-4a3.7 3.7 0 0 0-1.2 1.9 4.2 4.2 0 0 0 .2 2.2 5.7 5.7 0 0 0 1.1 2 2.8 2.8 0 0 0 .3.3 4.6 4.6 0 0 0 2.2.3 4.8 4.8 0 0 0 3-1.8 2.3 2.3 0 0 0 .4 0 3.8 3.8 0 0 0 2.8-1.5 9.6 9.6 0 0 1 4.8-3.5c7.2-2.3 12.9-6.4 10.8-5.8zm-25.7 0a3.7 3.7 0 0 0-2.6.1 3.2 3.2 0 0 0-1.7 1.8 3 3 0 0 0 0 2.5 3.4 3.4 0 0 0 2 1.7 3.8 3.8 0 0 1-2.7-1.5 3.2 3.2 0 0 1-.4-1.3 3.4 3.4 0 0 1 .2-1.5 3.4 3.4 0 0 1 2-2 4.5 4.5 0 0 1 3.2 0zM692.6 227.6c10.2-2 8.8 3.2 14.7 4.2 3.2.6 3.2-2.6 2.8-3.3a5.8 5.8 0 0 0-3.7-2.7v-.2a6.2 6.2 0 0 1 4 2.6 3 3 0 0 1 .7 1.9 1 1 0 0 0 .3.9 5.5 5.5 0 0 0 2 .9 5.7 5.7 0 0 0 11.2 0 2.5 2.5 0 0 1-.9-1.2 5.2 5.2 0 0 1 .1-2 4.4 4.4 0 0 0 .4 2 1.7 1.7 0 0 0 1.4 1 4 4 0 0 0 1.9-.2 4.2 4.2 0 0 0-1.6-8.2 2.6 2.6 0 0 1-.7 1.4 2.8 2.8 0 0 1-2.2.5 2.3 2.3 0 0 0 1.9-.8c.6-.7 1.4-3.9-2.2-4a2.8 2.8 0 0 0-1.6.4 3 3 0 0 0-5.5-1.3 3.8 3.8 0 0 1 1.4 2.6 3.4 3.4 0 0 1-2.2 3.4 3.3 3.3 0 0 0 1.3-1.6 3.6 3.6 0 0 0 .1-2 5 5 0 0 0-.7-1.9 3.4 3.4 0 0 0-.3-.3 4.1 4.1 0 0 0-1.8-.4 4.2 4.2 0 0 0-3 1.1 1.7 1.7 0 0 0-.3 0 3.4 3.4 0 0 0-2.6 1 8.5 8.5 0 0 1-4.6 2.6c-6.7 1-12.2 4-10.3 3.6zm22.6 3a3.3 3.3 0 0 0 2.3.1 2.8 2.8 0 0 0 1.7-1.4 2.7 2.7 0 0 0 .3-2.1 3 3 0 0 0-1.5-1.8 3.4 3.4 0 0 1 2.2 1.6 2.8 2.8 0 0 1 .2 1.3 3.3 3.3 0 0 1-.4 1.2 3 3 0 0 1-2 1.5 4 4 0 0 1-2.8-.4z" class="cls-2"/><path d="M213.8 194.9a2.8 2.8 0 0 0-2.9-2.4 2.8 2.8 0 0 0-5.4-1.4 1.6 1.6 0 0 0-.2-.1 2.8 2.8 0 0 0-2.9 4.9h.1a2.8 2.8 0 0 0 3.6 4.3 2.8 2.8 0 0 0 5.3-2 1.8 1.8 0 0 0 0-.2 2.8 2.8 0 0 0 2.4-3.1zm-3.4 2.1a.4.4 0 0 1-.6-.3.3.3 0 0 1 0-.1l-1.4-.4a1.4 1.4 0 0 1-.6.7l.6 1.3a.4.4 0 0 1 .3 0 .4.4 0 0 1 .2.7.4.4 0 0 1-.6.1.5.5 0 0 1-.2-.6.2.2 0 0 1 .1 0l-.6-1.4a1.4 1.4 0 0 1-.8 0l-.4 1.4a.5.5 0 0 1 .2.2.4.4 0 1 1-.5-.2h.1l.4-1.4a1.4 1.4 0 0 1-.8-.7l-1.3.6a.4.4 0 0 1 0 .3.4.4 0 1 1-.2-.6h.1l1.3-.5a1.5 1.5 0 0 1 0-.7l-1.3-.4a.4.4 0 0 1-.3.2.4.4 0 0 1-.5-.3.4.4 0 0 1 .2-.6.4.4 0 0 1 .6.3.7.7 0 0 1 0 .1l1.4.4a1.5 1.5 0 0 1 .6-.7l-.6-1.3a.4.4 0 0 1-.3 0 .4.4 0 0 1-.2-.7.4.4 0 0 1 .6-.1.5.5 0 0 1 .2.6l-.1.1.6 1.3a1.4 1.4 0 0 1 .8 0l.4-1.4a.4.4 0 0 1-.2-.2.4.4 0 0 1 .3-.6.4.4 0 0 1 .5.3.4.4 0 0 1-.2.6.3.3 0 0 1-.2 0l-.4 1.4a1.5 1.5 0 0 1 .8.6l1.3-.5a.4.4 0 1 1 .2.3v-.1l-1.4.6a1.5 1.5 0 0 1 0 .7l1.4.4a.4.4 0 0 1 .2-.2.4.4 0 0 1 .6.3.4.4 0 0 1-.3.5z" class="cls-7"/><path d="M201.6 195.8c-1.6-.2-5-.4-6 .2a29.2 29.2 0 0 0 5.9.1c-.8.9-3.9 3.3-8.2 0 0-.2 4.3-4.1 8.3-.3zM200.3 193.7c-.8-1.4-2.6-4.2-3.7-4.7a29.3 29.3 0 0 0 3.4 4.8c-1.2-.2-4.9-1.2-4.8-6.7.1 0 5.8 1.1 5.1 6.6z" class="cls-2"/><path d="M695.8 192.3a2.8 2.8 0 0 0-2.9-2.4 2.8 2.8 0 0 0-5.4-1.4 1 1 0 0 0-.2 0 2.8 2.8 0 1 0-2.9 4.8 4.8 4.8 0 1 0 9 2.4.8.8 0 0 0-.1-.2h.1a2.9 2.9 0 0 0 2.4-3.2zm-3.4 2.1a.5.5 0 0 1-.6-.3.6.6 0 0 1 0-.1l-1.4-.4a1.5 1.5 0 0 1-.6.7l.6 1.3a.5.5 0 0 1 .3 0 .4.4 0 0 1-.4.8.4.4 0 0 1-.2-.6.4.4 0 0 1 .1-.1l-.6-1.3a1.4 1.4 0 0 1-.8 0l-.4 1.4a.4.4 0 0 1 .2.2.4.4 0 0 1-.3.6.4.4 0 1 1-.3-.9.3.3 0 0 1 .2 0l.4-1.4a1.5 1.5 0 0 1-.8-.6l-1.3.5a.4.4 0 0 1-.7.5.4.4 0 1 1 .5-.8v.1l1.4-.6a1.5 1.5 0 0 1 0-.7l-1.4-.4a.5.5 0 0 1-.2.2.4.4 0 1 1-.3-.8.4.4 0 0 1 .6.3l1.4.5a1.4 1.4 0 0 1 .6-.7l-.6-1.3a.4.4 0 0 1-.3-.1.4.4 0 0 1-.2-.6.5.5 0 0 1 .6-.1.4.4 0 0 1 .2.6.4.4 0 0 1-.1 0l.6 1.4a1.5 1.5 0 0 1 .8 0l.4-1.4a.5.5 0 0 1-.2-.3.4.4 0 0 1 .3-.5.4.4 0 1 1 .3.8h-.2l-.4 1.4a1.4 1.4 0 0 1 .8.7l1.3-.6a.4.4 0 0 1 0-.3.4.4 0 1 1 .8.5.4.4 0 0 1-.6.1l-1.4.5a1.4 1.4 0 0 1 0 .7l1.4.4a.4.4 0 0 1 .2-.2.4.4 0 1 1 .3.9z" class="cls-7"/><path d="M683.6 193.2c-1.6-.1-5-.4-6 .2a29.4 29.4 0 0 0 5.8.2c-.8.8-3.8 3.2-8.1-.2 0 0 4.3-4 8.3-.2zM682.3 191.1c-.8-1.3-2.6-4.2-3.7-4.7a29.7 29.7 0 0 0 3.4 4.8c-1.2-.2-5-1.2-4.8-6.6 0 0 5.8 1 5.1 6.5z" class="cls-2"/><path d="M658.7 242.8a1 1 0 0 0 .5-2 1 1 0 0 0-.5 2zM671.4 252.1a1.7 1.7 0 0 0 .7-3.3 1.7 1.7 0 0 0-.8 3.3z" class="cls-7"/><path d="M696.4 244.5a1.7 1.7 0 0 0 .8-3.3 1.7 1.7 0 0 0-.8 3.3z" class="cls-2"/></svg>