<svg id="Calque_5" data-name="Calque 5" xmlns="http://www.w3.org/2000/svg" viewBox="0 0 841.89 595.28"><defs><style>.cls-1,.cls-2{fill:#e7aa5a;}.cls-1{opacity:0.4;}.cls-3{fill:#272f32;}.cls-4{font-size:53.18px;fill:#3a2a19;font-family:Gothic821CondensedBT-Regular, Gothic821 Cn BT;}.cls-5{letter-spacing:-0.04em;}.cls-10,.cls-6{fill:#da1115;}.cls-7{fill:#e53636;}.cls-8,.cls-9{font-size:39.89px;}.cls-8{fill:#fff;}.cls-10,.cls-8,.cls-9{font-family:MoonFlowerBold, Moon Flower Bold;}.cls-9{fill:#010101;}.cls-10{font-size:98.57px;}</style></defs><title>01-Affiche-Janvier</title><rect class="cls-1" x="91.18" y="278.97" width="659.52" height="240.2"/><path class="cls-2" d="M414.35,531.34l-16.52,18.58c.28,1.08.57,2.11.86,3.1l15.73-17.7C414.42,534,414.39,532.7,414.35,531.34Z"/><path class="cls-2" d="M399.68,556c2.46,6.93,5.25,10.68,7,10.58,2.83-.17,7-10.3,7.63-27.1Z"/><circle class="cls-2" cx="398.99" cy="514.09" r="1.86"/><path class="cls-2" d="M403,509.09a.87.87,0,1,1-.92-.82A.88.88,0,0,1,403,509.09Z"/><path class="cls-2" d="M408.53,512.1a1.42,1.42,0,1,1-1.5-1.34A1.41,1.41,0,0,1,408.53,512.1Z"/><path class="cls-2" d="M413.19,518.13c-1.17-7.92-8.95.82-18.59,1.1,0,0,0,6.7.18,10.18a117.2,117.2,0,0,0,1.69,14.26l17.38-19.56C413.55,521.1,413.19,518.13,413.19,518.13Zm-11.84,8a.92.92,0,1,1,.86-1A.92.92,0,0,1,401.35,526.18Zm2.9-4.55a1.23,1.23,0,0,1-1.29-1.15,1.22,1.22,0,1,1,1.29,1.15Z"/><path class="cls-2" d="M447.25,529.41,430.74,548c.27,1.08.56,2.11.85,3.09l15.73-17.7C447.32,532.09,447.3,530.77,447.25,529.41Z"/><path class="cls-2" d="M432.58,554.09c2.46,6.93,5.25,10.69,7,10.58,2.84-.16,7.06-10.3,7.64-27.09Z"/><circle class="cls-2" cx="431.89" cy="512.15" r="1.86"/><path class="cls-2" d="M435.9,507.15a.86.86,0,0,1-.81.92.88.88,0,0,1-.92-.82.87.87,0,0,1,1.73-.1Z"/><path class="cls-2" d="M441.44,510.16a1.43,1.43,0,1,1-1.51-1.34A1.44,1.44,0,0,1,441.44,510.16Z"/><path class="cls-2" d="M446.09,516.2c-1.17-7.93-8.94.82-18.58,1.09,0,0,0,6.71.17,10.19a117.68,117.68,0,0,0,1.69,14.26l17.39-19.56C446.45,519.17,446.09,516.2,446.09,516.2Zm-11.84,8a.92.92,0,1,1,.87-1A.92.92,0,0,1,434.25,524.25Zm2.91-4.56a1.22,1.22,0,1,1,1.14-1.29A1.22,1.22,0,0,1,437.16,519.69Z"/><path class="cls-3" d="M405.7,571.26l.74,12.72L398,586.22a.87.87,0,0,0-.63,1,.85.85,0,0,0,.9.72l19.33-1.13a.87.87,0,0,0,.81-.83.85.85,0,0,0-.74-.88L409,583.82l-.75-12.72c3.59-1,6.51-5.61,8.49-13.35,2.06-8,2.83-18.62,2.17-29.76a110.26,110.26,0,0,0-4.08-24.69,1.3,1.3,0,0,0-1.31-.92l-21.13,1.24a1.31,1.31,0,0,0-1.2,1.07,110.23,110.23,0,0,0-1.16,25c.66,11.14,2.66,21.54,5.65,29.3C398.58,566.44,402,570.64,405.7,571.26Zm-12.11-65.12L412.66,505a109.23,109.23,0,0,1,3.7,23.12c.64,10.88-.11,21.17-2.1,29-1.82,7.13-4.6,11.48-7.42,11.65s-6.08-3.84-8.73-10.7c-2.89-7.51-4.84-17.64-5.48-28.52A109.61,109.61,0,0,1,393.59,506.14Z"/><path class="cls-3" d="M438.6,569.32l.75,12.72-8.44,2.25a.86.86,0,0,0-.63,1,.87.87,0,0,0,.9.72l19.32-1.14a.86.86,0,0,0,.07-1.71l-8.64-1.24-.75-12.72c3.59-1,6.5-5.62,8.48-13.36,2.06-8,2.83-18.62,2.18-29.76a110.34,110.34,0,0,0-4.09-24.69,1.3,1.3,0,0,0-1.31-.92l-21.13,1.25a1.28,1.28,0,0,0-1.19,1.06,110.26,110.26,0,0,0-1.16,25c.65,11.14,2.66,21.55,5.65,29.3C431.48,564.51,434.91,568.7,438.6,569.32Zm-12.11-65.11,19.07-1.13a109.33,109.33,0,0,1,3.7,23.13c.64,10.87-.11,21.16-2.1,29-1.82,7.13-4.59,11.49-7.41,11.65s-6.09-3.83-8.73-10.7c-2.9-7.51-4.84-17.64-5.48-28.52A108.88,108.88,0,0,1,426.49,504.21Z"/><path class="cls-3" d="M419.35,500.8a1.29,1.29,0,0,0,1.22-1.36l-.43-7.29a1.29,1.29,0,1,0-2.58.15l.43,7.29A1.28,1.28,0,0,0,419.35,500.8Z"/><path class="cls-3" d="M422.65,500.61a1.3,1.3,0,0,0,.89-.43l3.71-4.17a1.29,1.29,0,1,0-1.93-1.72l-3.71,4.17a1.29,1.29,0,0,0,.11,1.82A1.27,1.27,0,0,0,422.65,500.61Z"/><path class="cls-3" d="M415.12,500.67a1.26,1.26,0,0,0,.93.33,1.32,1.32,0,0,0,.89-.43,1.29,1.29,0,0,0-.11-1.83L412.66,495A1.29,1.29,0,0,0,411,497Z"/><text class="cls-4" transform="translate(191.53 349.94) scale(0.94 1)">RENDE<tspan class="cls-5" x="119.09" y="0">Z-</tspan><tspan x="151.73" y="0">VOUS À BESANCON</tspan><tspan x="42.7" y="63.82">Place du 8 Septembre</tspan><tspan x="-17.42" y="127.63">VENDREDI 4 janvier À 18H30</tspan></text><rect class="cls-2" x="259.02" y="135.54" width="320.91" height="47.64"/><rect class="cls-6" x="223.23" y="186.4" width="396.04" height="47.64"/><path class="cls-7" d="M739.43,161.33a8.64,8.64,0,0,0-7-9.17A8.62,8.62,0,0,0,717,144.41a4,4,0,0,0-.38-.44,8.66,8.66,0,1,0-11.8,12.68s.1.07.15.11l-.17.07a8.64,8.64,0,0,0,7.86,15.39,8.64,8.64,0,0,0,17.12-2.38,3.92,3.92,0,0,0-.15-.66c.15,0,.3.07.44.08A8.67,8.67,0,0,0,739.43,161.33Zm-11.66,3.87a1.34,1.34,0,0,1-1.45-1.21,1,1,0,0,1,0-.38l-3.92-2.13a4.37,4.37,0,0,1-2.33,1.75l1,4.3a1.33,1.33,0,1,1-1,.41,1.1,1.1,0,0,1,.31-.22l-1-4.34c-.07,0-.13,0-.19,0A4.31,4.31,0,0,1,717,163l-2.12,3.89a1.34,1.34,0,0,1,.43.85,1.34,1.34,0,1,1-1.45-1.21,1.23,1.23,0,0,1,.38,0l2.13-3.92a4.34,4.34,0,0,1-1.8-2.5l-4.35.8a1.29,1.29,0,0,1-.39.87,1.34,1.34,0,1,1,0-1.9,1.12,1.12,0,0,1,.2.33l4.37-.81h0a4.31,4.31,0,0,1,.38-2.18L711,155.16a1.25,1.25,0,0,1-.85.43,1.34,1.34,0,1,1,1.22-1.45,1.24,1.24,0,0,1-.05.38l3.92,2.13a4.34,4.34,0,0,1,2.33-1.76l-1-4.3a1.29,1.29,0,0,1-.88-.35,1.34,1.34,0,1,1,1.89-.05,1.73,1.73,0,0,1-.31.22l1,4.34.19,0a4.31,4.31,0,0,1,2.18.39l2.12-3.89a1.32,1.32,0,1,1,1,.36,1.64,1.64,0,0,1-.38,0l-2.13,3.92A4.31,4.31,0,0,1,723,158l4.35-.8a1.29,1.29,0,0,1,.39-.87,1.34,1.34,0,1,1,0,1.89,1.07,1.07,0,0,1-.2-.32l-4.37.81h0a4.37,4.37,0,0,1-.38,2.19l3.89,2.11a1.3,1.3,0,0,1,.85-.43,1.34,1.34,0,0,1,.24,2.67Z"/><path class="cls-2" d="M702.32,155.8c-4.5-1.5-14.48-4.55-18.07-3.39,0,0,11.18,3.94,17.46,4.34-3,1.9-13.56,7.06-24.23-5.81C677.54,150.66,693,141.83,702.32,155.8Z"/><path class="cls-2" d="M700,148.68c-1.48-4.51-5-14.34-8-16.54,0,0,3.5,11.34,6.92,16.62-3.31-1.28-13.74-6.69-9.77-22.93C689.39,125.72,705.7,132.88,700,148.68Z"/><path class="cls-7" d="M680.09,233.46a1.74,1.74,0,0,0,0-3.47,1.74,1.74,0,0,0,0,3.47Z"/><path class="cls-7" d="M621,155.06a1.74,1.74,0,0,0,0-3.47,1.74,1.74,0,0,0,0,3.47Z"/><path class="cls-2" d="M648.39,236.36c3.73,0,3.73-5.79,0-5.79s-3.73,5.79,0,5.79Z"/><path class="cls-2" d="M711.27,202.42c3.72,0,3.73-5.79,0-5.79s-3.74,5.79,0,5.79Z"/><path class="cls-7" d="M617.59,179.76a1.74,1.74,0,0,0,0-3.47,1.74,1.74,0,0,0,0,3.47Z"/><path class="cls-2" d="M638.47,171.11a6.66,6.66,0,0,0,.35,8.92A6.65,6.65,0,0,0,645,191.76a3.27,3.27,0,0,0,0,.45,6.69,6.69,0,0,0,13.1-2.72c0-.05,0-.09,0-.14l.14,0a6.68,6.68,0,0,0,1.91-13.22A6.67,6.67,0,0,0,648.33,170a3.58,3.58,0,0,0-.2.49,2.89,2.89,0,0,0-.24-.25A6.68,6.68,0,0,0,638.47,171.11Zm9.07,2.76a1,1,0,0,1,.38,1.41.7.7,0,0,1-.2.22l1.52,3.1a3.28,3.28,0,0,1,2.25-.07l1.3-3.16a1,1,0,0,1-.4-.61,1,1,0,1,1,1.22.81,1,1,0,0,1-.3,0L652,178.75l.14.06a3.26,3.26,0,0,1,1.2,1.22l3.07-1.51a1,1,0,0,1,.11-.73,1,1,0,1,1,.38,1.41.82.82,0,0,1-.22-.19l-3.1,1.52a3.36,3.36,0,0,1,0,2.38l3.1,1.43a1,1,0,0,1,.63-.37,1,1,0,1,1-.86,1.18.93.93,0,0,1,0-.29l-3.11-1.44h0a3.37,3.37,0,0,1-1.22,1.21l1.51,3.07a1,1,0,0,1,1.1,1.52,1,1,0,0,1-1.41.37,1,1,0,0,1-.38-1.41,1.42,1.42,0,0,1,.2-.22l-1.52-3.09a3.4,3.4,0,0,1-2.25.07l-1.3,3.15a1,1,0,0,1,.4.61,1,1,0,1,1-2,.41,1,1,0,0,1,.81-1.22,1.41,1.41,0,0,1,.29,0l1.31-3.18a.75.75,0,0,1-.13-.06,3.42,3.42,0,0,1-1.21-1.21l-3.07,1.5a1,1,0,0,1-.1.73,1.05,1.05,0,0,1-1.42.38,1,1,0,0,1-.37-1.42,1,1,0,0,1,1.41-.37,1,1,0,0,1,.22.19l3.09-1.51a3.34,3.34,0,0,1,0-2.39l-3.1-1.43a1,1,0,0,1-1.82-.49,1,1,0,0,1,.86-1.18,1,1,0,0,1,1.18.86.76.76,0,0,1,0,.3l3.12,1.44h0a3.31,3.31,0,0,1,1.21-1.2l-1.51-3.07a1,1,0,0,1-.72-.11,1,1,0,1,1,1-1.79Z"/><path class="cls-7" d="M659.39,191.15c2.17,3,7.1,9.33,9.88,10.21,0,0-5.29-7.48-9.07-10.54,2.74.15,11.7,1.61,12.68,14.48C672.72,205.45,659,204.11,659.39,191.15Z"/><path class="cls-7" d="M657.66,196.66c-1.08,3.5-3.26,11.26-2.31,14,0,0,2.85-8.71,3.06-13.56,1.51,2.28,5.68,10.35-4.08,18.81C654.12,215.89,647,204.09,657.66,196.66Z"/><polygon class="cls-7" points="640.81 125.71 640.5 126.26 629.02 120.32 629.95 118.7 640.81 125.71"/><polygon class="cls-7" points="654.25 134.16 654.56 133.62 669.24 141.34 668.31 142.96 654.25 134.16"/><polygon class="cls-2" points="644.84 128.51 642.6 123.32 647.03 126.84 650.4 122.3 649.57 127.89 655.19 128.54 649.93 130.63 652.18 135.82 647.75 132.3 644.37 136.84 645.2 131.25 639.58 130.6 644.84 128.51"/><polygon class="cls-7" points="646.54 122.06 645.91 122.17 642.58 105.92 644.42 105.61 646.54 122.06"/><polygon class="cls-7" points="648.52 137.81 649.14 137.71 651.71 150.19 649.86 150.5 648.52 137.81"/><polygon class="cls-7" points="654.01 125.35 653.62 124.85 664.48 115.55 665.62 117.03 654.01 125.35"/><polygon class="cls-7" points="641.05 134.52 641.44 135.02 628.67 145.62 627.53 144.14 641.05 134.52"/><polygon class="cls-7" points="637.26 130.18 637.3 130.81 628.81 131.73 628.71 129.87 637.26 130.18"/><polygon class="cls-7" points="658.18 128.22 658.15 127.59 666.56 126.3 666.65 128.17 658.18 128.22"/><polygon class="cls-7" points="642.76 119.76 642.19 120.02 638.2 112.47 639.9 111.69 642.76 119.76"/><polygon class="cls-7" points="652.29 138.48 652.86 138.22 657.16 145.56 655.46 146.34 652.29 138.48"/><polygon class="cls-7" points="652.15 119.54 651.6 119.23 655.27 111.52 656.9 112.42 652.15 119.54"/><polygon class="cls-7" points="642.86 138.37 643.41 138.67 640.1 146.51 638.46 145.61 642.86 138.37"/><path class="cls-7" d="M160.3,191.51a6.71,6.71,0,0,0-.15,9,6.7,6.7,0,0,0,5.59,12.14,3.31,3.31,0,0,0,0,.45,6.72,6.72,0,0,0,13.3-2,.61.61,0,0,0,0-.13l.13,0a6.72,6.72,0,0,0,2.67-13.17A6.71,6.71,0,0,0,170.27,191a3.54,3.54,0,0,0-.23.48c-.08-.09-.15-.19-.23-.27A6.74,6.74,0,0,0,160.3,191.51Zm9,3.28a1,1,0,0,1,.3,1.44.7.7,0,0,1-.21.21l1.35,3.19a3.41,3.41,0,0,1,2.27.06l1.48-3.09a1,1,0,1,1,.81.24,1,1,0,0,1-.3,0l-1.49,3.12.13.07a3.42,3.42,0,0,1,1.14,1.29l3.17-1.34a1,1,0,0,1,.15-.72,1,1,0,1,1,.3,1.43,1,1,0,0,1-.22-.2L175,201.82a3.35,3.35,0,0,1-.11,2.39l3,1.61a1,1,0,0,1,.65-.34,1,1,0,0,1,1.14.93,1,1,0,0,1-.93,1.14,1,1,0,0,1-1.14-.93.92.92,0,0,1,0-.29l-3-1.62h0a3.32,3.32,0,0,1-1.28,1.14l1.34,3.17a1,1,0,0,1,.72.15,1,1,0,0,1-1.14,1.74,1,1,0,0,1-.09-1.65l-1.35-3.19a3.38,3.38,0,0,1-2.26-.06L169,209.1a1,1,0,0,1,.36.64,1,1,0,1,1-1.17-.88.93.93,0,0,1,.29,0l1.5-3.12-.13-.07a3.34,3.34,0,0,1-1.14-1.29l-3.17,1.34a1.09,1.09,0,0,1-.15.72,1,1,0,1,1-.3-1.43.8.8,0,0,1,.21.2l3.19-1.35a3.35,3.35,0,0,1,.12-2.39l-3-1.61a1,1,0,0,1-.66.33,1,1,0,1,1,.93-1.13.92.92,0,0,1,0,.29L168.9,201h0a3.28,3.28,0,0,1,1.29-1.14l-1.34-3.17a1,1,0,0,1-.73-.15,1,1,0,1,1,1.14-1.74Z"/><path class="cls-2" d="M180.19,212.81c2,3.09,6.6,9.77,9.35,10.81,0,0-4.9-7.81-8.52-11.09,2.75.3,11.66,2.27,11.92,15.25C192.77,227.92,179.1,225.8,180.19,212.81Z"/><path class="cls-2" d="M178.14,218.25c-1.28,3.45-3.91,11.12-3.1,13.94,0,0,3.35-8.58,3.82-13.45,1.4,2.39,5.13,10.72-5.14,18.67C173.51,237.36,167.06,225.11,178.14,218.25Z"/><path class="cls-2" d="M131.62,188.88a8,8,0,0,0,7.15-8,8,8,0,0,0,4.43-15.38,4.46,4.46,0,0,0,.33-.43,8.06,8.06,0,0,0-13.63-8.59l-.08.15a1.1,1.1,0,0,0-.09-.14A8,8,0,0,0,117,166.32a8,8,0,0,0,5.15,15.24,5.64,5.64,0,0,0,.58-.25,2.8,2.8,0,0,0,0,.41A8.06,8.06,0,0,0,131.62,188.88Zm-5.56-10a1.24,1.24,0,0,1,.85-1.54,1.1,1.1,0,0,1,.36,0l1.27-3.95a4,4,0,0,1-2-1.82l-3.77,1.64a1.22,1.22,0,0,1-.16.87,1.25,1.25,0,1,1-.38-1.72,1.18,1.18,0,0,1,.25.25l3.8-1.66a1.15,1.15,0,0,1-.06-.17,4,4,0,0,1,0-2.06l-3.93-1.26a1.2,1.2,0,0,1-.7.54,1.25,1.25,0,1,1,.86-1.54,1,1,0,0,1,0,.35l4,1.27a4.05,4.05,0,0,1,2-2.08l-1.49-3.83a1.26,1.26,0,0,1-.86-.21,1.25,1.25,0,1,1,1.73-.3,1,1,0,0,1-.26.24l1.5,3.86h0a4.15,4.15,0,0,1,2.07,0l1.26-3.92a1.19,1.19,0,0,1-.54-.7,1.24,1.24,0,1,1,1.54.85,1.1,1.1,0,0,1-.36,0l-1.27,3.95a4.09,4.09,0,0,1,2,1.82l3.76-1.64a1.29,1.29,0,0,1,.17-.87,1.25,1.25,0,1,1,.38,1.72,1.54,1.54,0,0,1-.26-.25l-3.8,1.67s.05.1.07.16a4,4,0,0,1,0,2.06l3.92,1.26a1.27,1.27,0,0,1,.7-.54,1.25,1.25,0,1,1-.85,1.54,1.38,1.38,0,0,1,0-.35l-3.95-1.27a4.05,4.05,0,0,1-2,2.08l1.49,3.83a1.28,1.28,0,0,1,.86.21,1.25,1.25,0,1,1-1.73.3,1.13,1.13,0,0,1,.25-.24l-1.49-3.85h0a4.11,4.11,0,0,1-2.06,0l-1.26,3.92a1.27,1.27,0,0,1,.54.7,1.24,1.24,0,1,1-2.39.69Z"/><path class="cls-7" d="M130.24,154c.59-4.38,1.64-14,0-17.12,0,0-1.66,10.92-.94,16.73-2.26-2.42-8.8-11.18,1.11-23.17C130.63,130.44,141.39,143.05,130.24,154Z"/><path class="cls-7" d="M136.34,150.66c3.87-2.13,12.25-7,13.73-10.23,0,0-9.76,5.17-14,9.21.6-3.25,3.73-13.73,19.27-12.91C155.5,136.94,151.77,153.1,136.34,150.66Z"/><path class="cls-7" d="M145.71,240.88a1.74,1.74,0,0,0,0-3.47,1.74,1.74,0,0,0,0,3.47Z"/><path class="cls-7" d="M167.24,247.91a1.74,1.74,0,0,0,0-3.48,1.74,1.74,0,0,0,0,3.48Z"/><path class="cls-7" d="M201.9,247.91a1.74,1.74,0,0,0,0-3.48,1.74,1.74,0,0,0,0,3.48Z"/><path class="cls-7" d="M111.67,121.92a1.74,1.74,0,0,0,0-3.47,1.74,1.74,0,0,0,0,3.47Z"/><path class="cls-2" d="M120,233.62c3.73,0,3.74-5.79,0-5.79s-3.73,5.79,0,5.79Z"/><path class="cls-2" d="M163.51,166c3.73,0,3.73-5.79,0-5.79s-3.73,5.79,0,5.79Z"/><path class="cls-7" d="M113.34,206.19c3.73,0,3.74-5.8,0-5.8s-3.73,5.8,0,5.8Z"/><path class="cls-2" d="M211.72,212.48c3.73,0,3.73-5.79,0-5.79s-3.74,5.79,0,5.79Z"/><path class="cls-7" d="M140.26,214.26a1.74,1.74,0,0,0,0-3.47,1.74,1.74,0,0,0,0,3.47Z"/><polygon class="cls-7" points="217.48 156.44 217.51 155.67 233.28 155.64 233.19 157.92 217.48 156.44"/><polygon class="cls-7" points="198.18 154.85 198.15 155.62 177.9 155.51 178 153.23 198.18 154.85"/><polygon class="cls-2" points="211.54 155.67 216.89 160.03 210.11 158.72 209.01 165.53 206.76 159 200.31 161.46 204.84 156.25 199.49 151.89 206.26 153.2 207.36 146.39 209.61 152.91 216.06 150.46 211.54 155.67"/><polygon class="cls-7" points="213.33 163.61 213.94 163.15 226.7 178.87 224.88 180.24 213.33 163.61"/><polygon class="cls-7" points="202.32 147.68 201.71 148.14 191.91 136.06 193.74 134.69 202.32 147.68"/><polygon class="cls-7" points="203.39 164.25 204.09 164.57 197.56 180.75 195.5 179.79 203.39 164.25"/><polygon class="cls-7" points="212.26 147.04 211.56 146.71 219.42 128.06 221.49 129.02 212.26 147.04"/><polygon class="cls-7" points="218.81 149.61 218.42 148.94 227.09 143.17 228.24 145.14 218.81 149.61"/><polygon class="cls-7" points="197.26 163.49 197.65 164.15 189.27 170.28 188.12 168.31 197.26 163.49"/><polygon class="cls-7" points="218.71 163.98 219.19 163.38 227.75 169.31 226.34 171.11 218.71 163.98"/><polygon class="cls-7" points="197.87 149.07 197.39 149.68 188.61 144.14 190.01 142.35 197.87 149.07"/><polygon class="cls-7" points="208.67 169.51 209.44 169.53 209.81 179.94 207.53 179.89 208.67 169.51"/><polygon class="cls-7" points="208.14 143.88 207.37 143.87 206.55 133.51 208.83 133.57 208.14 143.88"/><text class="cls-8" transform="translate(230.65 221.26) scale(0.94 1)">on va trinquer et ça va swinguer !</text><text class="cls-9" transform="translate(271.02 172.5) scale(0.94 1)">Apportez Galette et bulles,</text><text class="cls-10" transform="translate(177.14 91.15) scale(0.94 1)">COQUELICOTS BULLES</text><path class="cls-7" d="M740.42,289.3a15.2,15.2,0,0,1-9.42-1.68,3.64,3.64,0,0,0-2,4.62h-.24a3.63,3.63,0,1,0,1.07,7.18l.08,0a.24.24,0,0,0,0,.08,6.1,6.1,0,1,0,10.79-4.81l-.25-.12.14-.12A3.64,3.64,0,0,0,740.42,289.3Zm-1.77,4.84a.56.56,0,0,1-.78.16.63.63,0,0,1-.12-.11l-1.72.73a1.77,1.77,0,0,1,0,1.22l1.67.8a.55.55,0,0,1,1,.28.55.55,0,0,1-.47.63.56.56,0,0,1-.64-.47.42.42,0,0,1,0-.16l-1.69-.81,0,.07a1.8,1.8,0,0,1-.7.62l.73,1.71a.55.55,0,0,1,.39.08.56.56,0,1,1-.78.16.38.38,0,0,1,.11-.11l-.73-1.73a1.8,1.8,0,0,1-1.29-.06l-.87,1.64a.52.52,0,0,1,.18.35.57.57,0,0,1-.5.62.56.56,0,0,1-.61-.51.55.55,0,0,1,.5-.61.44.44,0,0,1,.16,0l.87-1.65h0a1.81,1.81,0,0,1-.62-.7L731,297a.55.55,0,0,1-.85.55.56.56,0,0,1-.16-.78.55.55,0,0,1,.77-.16.63.63,0,0,1,.12.11l1.72-.72a1.79,1.79,0,0,1,0-1.23l-1.67-.8a.52.52,0,0,1-.35.2.55.55,0,0,1-.63-.47.56.56,0,1,1,1.11-.16.45.45,0,0,1,0,.16l1.69.8,0-.07a1.86,1.86,0,0,1,.7-.61l-.73-1.71a.6.6,0,0,1-.39-.08.56.56,0,1,1,.62-.94.55.55,0,0,1,.16.77.63.63,0,0,1-.11.12l.73,1.72a1.86,1.86,0,0,1,1.29.06l.87-1.63a.52.52,0,0,1-.18-.36.56.56,0,0,1,.5-.61.55.55,0,0,1,.61.5.56.56,0,0,1-.5.62l-.16,0-.87,1.64h0a1.86,1.86,0,0,1,.62.69l1.71-.72a.54.54,0,0,1,.08-.39.55.55,0,0,1,.77-.17A.57.57,0,0,1,738.65,294.14Z"/><path class="cls-2" d="M728.92,300c-1.67,1.09-5.28,3.57-5.84,5a37.35,37.35,0,0,0,6-4.6c-.16,1.48-1.23,6.29-8.23,6.44C720.76,306.83,721.9,299.45,728.92,300Z"/><path class="cls-2" d="M726,298.93c-1.86-.69-6-2.11-7.53-1.67a38,38,0,0,0,7.26,2.07c-1.28.75-5.78,2.76-10.07-2.78C715.67,296.43,722.28,293,726,298.93Z"/><path class="cls-7" d="M742.52,511.58a3.61,3.61,0,0,0,.08-4.84,3.62,3.62,0,0,0-3-6.56,1.93,1.93,0,0,0,0-.24,3.63,3.63,0,1,0-7.18,1.08.19.19,0,0,0,0,.07l-.07,0a3.63,3.63,0,0,0-1.44,7.11,3.63,3.63,0,0,0,6.24,3.69,2.06,2.06,0,0,0,.12-.26.86.86,0,0,0,.13.14A3.62,3.62,0,0,0,742.52,511.58Zm-4.84-1.77a.56.56,0,0,1-.16-.78.38.38,0,0,1,.11-.11l-.73-1.73a1.77,1.77,0,0,1-1.22,0l-.8,1.67a.59.59,0,0,1,.2.35.56.56,0,0,1-.48.63.55.55,0,0,1-.63-.47.56.56,0,0,1,.47-.64h.16l.81-1.68-.07,0a1.81,1.81,0,0,1-.62-.7L733,507a.55.55,0,0,1-.08.39.55.55,0,0,1-.77.16.56.56,0,1,1,.61-.94.46.46,0,0,1,.12.12l1.72-.73a1.83,1.83,0,0,1,.06-1.3l-1.64-.87a.58.58,0,0,1-.35.19.56.56,0,0,1-.61-.51.56.56,0,1,1,1.11-.11.42.42,0,0,1,0,.16l1.64.88h0a1.86,1.86,0,0,1,.7-.61l-.73-1.71a.55.55,0,0,1-.39-.08.56.56,0,1,1,.62-.94.55.55,0,0,1,.16.77.63.63,0,0,1-.11.12l.73,1.72a1.89,1.89,0,0,1,1.22,0l.8-1.67a.54.54,0,0,1-.2-.34.57.57,0,0,1,.48-.64.56.56,0,1,1,.15,1.11.45.45,0,0,1-.16,0l-.8,1.69.07,0a1.86,1.86,0,0,1,.62.69l1.71-.72a.55.55,0,0,1,.08-.39.56.56,0,1,1,.93.61.55.55,0,0,1-.77.16.63.63,0,0,1-.12-.11l-1.72.73a1.85,1.85,0,0,1-.06,1.29l1.63.87a.65.65,0,0,1,.36-.18.55.55,0,0,1,.61.5.56.56,0,1,1-1.11.12.42.42,0,0,1,0-.16l-1.64-.88h0a1.8,1.8,0,0,1-.7.62l.73,1.71a.55.55,0,0,1,.39.08.56.56,0,0,1-.62.94Z"/><path class="cls-2" d="M731.78,500.08c-1.08-1.67-3.56-5.27-5-5.83a38.08,38.08,0,0,0,4.6,6c-1.48-.16-6.29-1.22-6.43-8.23C725,491.92,732.37,493.06,731.78,500.08Z"/><path class="cls-2" d="M732.89,497.15c.69-1.87,2.11-6,1.67-7.54a37.39,37.39,0,0,0-2.06,7.27c-.76-1.29-2.77-5.79,2.77-10.08C735.39,486.83,738.87,493.44,732.89,497.15Z"/><path class="cls-7" d="M101.84,511.63a3.63,3.63,0,0,0,4.85.08,3.61,3.61,0,0,0,6.55-3,2.11,2.11,0,0,0,.25,0,3.63,3.63,0,1,0-1.08-7.18l-.08,0,0-.07a3.63,3.63,0,0,0-7.11-1.44,3.63,3.63,0,0,0-3.69,6.24,1.23,1.23,0,0,0,.26.12,1.79,1.79,0,0,0-.14.13A3.62,3.62,0,0,0,101.84,511.63Zm1.78-4.84a.55.55,0,0,1,.77-.16.63.63,0,0,1,.12.11l1.72-.73a1.89,1.89,0,0,1,0-1.22l-1.67-.8a.5.5,0,0,1-.34.2.56.56,0,0,1-.64-.47.57.57,0,0,1,.48-.64.56.56,0,0,1,.63.48.45.45,0,0,1,0,.16l1.69.8,0-.07a1.83,1.83,0,0,1,.69-.61l-.72-1.71a.6.6,0,0,1-.39-.08.56.56,0,1,1,.61-.94.55.55,0,0,1,.16.77.63.63,0,0,1-.11.12l.73,1.72a1.85,1.85,0,0,1,1.29.06l.87-1.63a.57.57,0,0,1-.18-.36.55.55,0,0,1,.5-.61.56.56,0,0,1,.62.5.58.58,0,0,1-.5.62l-.16,0-.88,1.64h0a1.71,1.71,0,0,1,.62.69l1.71-.72a.54.54,0,0,1,.08-.39.56.56,0,1,1,.16.77.38.38,0,0,1-.11-.11l-1.73.73a1.77,1.77,0,0,1,0,1.22l1.67.8a.59.59,0,0,1,.35-.2.56.56,0,0,1,.63.48.55.55,0,0,1-.47.63.56.56,0,0,1-.64-.47.81.81,0,0,1,0-.16l-1.68-.81a.25.25,0,0,0,0,.07,1.74,1.74,0,0,1-.7.62l.73,1.71a.55.55,0,0,1,.39.08.56.56,0,0,1,.16.78.57.57,0,0,1-.78.16.56.56,0,0,1-.16-.78.32.32,0,0,1,.12-.11l-.73-1.73a1.83,1.83,0,0,1-1.3-.06l-.87,1.64a.55.55,0,0,1-.32,1,.56.56,0,0,1-.61-.51.55.55,0,0,1,.5-.61.42.42,0,0,1,.16,0L107,507h0a1.79,1.79,0,0,1-.61-.7l-1.71.73a.6.6,0,0,1-.08.39.56.56,0,1,1-.94-.62Z"/><path class="cls-2" d="M113.35,500.89c1.66-1.08,5.27-3.56,5.83-5a37.35,37.35,0,0,0-6,4.6c.16-1.49,1.23-6.3,8.24-6.44C121.5,494.1,120.36,501.48,113.35,500.89Z"/><path class="cls-2" d="M116.28,502c1.87.69,6,2.11,7.53,1.68a37.74,37.74,0,0,0-7.26-2.07c1.29-.75,5.78-2.77,10.08,2.78C126.6,504.5,120,508,116.28,502Z"/><path class="cls-7" d="M98.64,303.34a3.61,3.61,0,0,0,4.84.08,3.61,3.61,0,0,0,6.55-3,1,1,0,0,0,.25,0,3.63,3.63,0,1,0-1.08-7.18l-.07,0a.19.19,0,0,1,0-.07,3.63,3.63,0,0,0-7.11-1.44A3.63,3.63,0,0,0,98.35,298a1.23,1.23,0,0,0,.26.12,1.79,1.79,0,0,0-.14.13A3.62,3.62,0,0,0,98.64,303.34Zm1.77-4.84a.56.56,0,0,1,.78-.16l.11.11,1.72-.73a1.89,1.89,0,0,1,0-1.22l-1.66-.8a.55.55,0,0,1-.35.2.56.56,0,1,1-.16-1.11.56.56,0,0,1,.63.48.85.85,0,0,1,0,.16l1.68.8s0-.05,0-.07a1.83,1.83,0,0,1,.69-.61l-.72-1.71a.56.56,0,1,1,.39-.25.68.68,0,0,1-.12.12l.73,1.72a1.85,1.85,0,0,1,1.29.06l.88-1.63a.58.58,0,0,1-.19-.36.56.56,0,0,1,1.12-.11.55.55,0,0,1-.5.61.42.42,0,0,1-.16,0l-.88,1.64h0a1.86,1.86,0,0,1,.61.7l1.71-.72a.56.56,0,0,1,.86-.56.56.56,0,0,1-.62.94l-.11-.11-1.72.73a1.89,1.89,0,0,1,0,1.22l1.67.8a.54.54,0,0,1,.34-.2.57.57,0,0,1,.64.48.56.56,0,0,1-.48.63.55.55,0,0,1-.63-.47.42.42,0,0,1,0-.16l-1.69-.81a.25.25,0,0,1,0,.07,1.78,1.78,0,0,1-.69.62l.72,1.71a.55.55,0,0,1,.39.08.56.56,0,1,1-.77.16.38.38,0,0,1,.11-.11l-.73-1.73a1.8,1.8,0,0,1-1.29-.06l-.88,1.64a.55.55,0,0,1-.31,1,.57.57,0,0,1-.62-.51.55.55,0,0,1,.5-.61.42.42,0,0,1,.16,0l.88-1.64h0a1.8,1.8,0,0,1-.62-.7l-1.71.73a.55.55,0,0,1-.08.39.56.56,0,0,1-.94-.62Z"/><path class="cls-2" d="M110.14,292.6c1.67-1.08,5.27-3.56,5.83-5a38.19,38.19,0,0,0-6,4.59c.17-1.48,1.23-6.29,8.24-6.43C118.3,285.81,117.15,293.19,110.14,292.6Z"/><path class="cls-2" d="M113.07,293.71c1.87.69,6,2.11,7.53,1.68a37,37,0,0,0-7.26-2.07c1.29-.75,5.79-2.77,10.08,2.78C123.39,296.21,116.78,299.69,113.07,293.71Z"/><path class="cls-2" d="M144.25,224.25c-11.05,3.71-10.29-2.22-17-2.54-3.73-.18-3.23,3.46-2.65,4.12a6.55,6.55,0,0,0,4.51,2.54v.16a7,7,0,0,1-4.92-2.29,3.56,3.56,0,0,1-.9-2,1.18,1.18,0,0,0-.56-.92,6.25,6.25,0,0,0-2.26-.73,6.35,6.35,0,0,0-12.59,1.67c0,.06.9.45,1.17,1.12a5.84,5.84,0,0,1,.19,2.28h0a4.69,4.69,0,0,0-.74-2.13h0a1.91,1.91,0,0,0-1.63-.83,4.63,4.63,0,0,0-2.07.52,4.74,4.74,0,0,0,2.93,8.9h0a2.8,2.8,0,0,1,.6-1.76,3,3,0,0,1,2.32-.88h0a2.6,2.6,0,0,0-1.93,1.22c-.61.87-1.08,4.49,3,4.21a3.13,3.13,0,0,0,1.79-.8,3.43,3.43,0,0,0,6.34.63,4.24,4.24,0,0,1-2-2.66c-.58-2.36,1.31-3.57,2-4.05h0a3.71,3.71,0,0,0-1.22,1.93,4.17,4.17,0,0,0,.15,2.27,5.67,5.67,0,0,0,1.12,2,2.76,2.76,0,0,0,.29.3,4.64,4.64,0,0,0,2.17.23,4.76,4.76,0,0,0,3.08-1.74,2.29,2.29,0,0,0,.37,0,3.79,3.79,0,0,0,2.79-1.53,9.58,9.58,0,0,1,4.78-3.48C140.6,227.7,146.26,223.57,144.25,224.25Zm-25.67,0a3.71,3.71,0,0,0-2.59.15,3.22,3.22,0,0,0-1.72,1.81,3.08,3.08,0,0,0,.08,2.47,3.4,3.4,0,0,0,1.92,1.7v0a3.83,3.83,0,0,1-2.68-1.45,3.19,3.19,0,0,1-.4-1.38,3.42,3.42,0,0,1,.23-1.42,3.38,3.38,0,0,1,2-2,4.54,4.54,0,0,1,3.17.06Z"/><path class="cls-2" d="M692.59,227.64c10.17-2,8.82,3.15,14.69,4.21,3.26.59,3.25-2.68,2.82-3.33a5.84,5.84,0,0,0-3.69-2.76l0-.14a6.2,6.2,0,0,1,4.08,2.59,3.09,3.09,0,0,1,.56,1.89,1,1,0,0,0,.39.87,5.48,5.48,0,0,0,1.9.91,5.65,5.65,0,0,0,11.3,0,2.46,2.46,0,0,1-.91-1.13,5.16,5.16,0,0,1,.1-2h0a4.37,4.37,0,0,0,.41,2h0a1.7,1.7,0,0,0,1.34.91,4,4,0,0,0,1.89-.21,4.22,4.22,0,0,0-1.56-8.19h0a2.57,2.57,0,0,1-.73,1.48,2.77,2.77,0,0,1-2.16.5h0a2.34,2.34,0,0,0,1.85-.85c.63-.7,1.47-3.84-2.14-4.05a2.75,2.75,0,0,0-1.66.49,3.05,3.05,0,0,0-5.52-1.29,3.76,3.76,0,0,1,1.44,2.57,3.36,3.36,0,0,1-2.2,3.35h0a3.25,3.25,0,0,0,1.3-1.56,3.57,3.57,0,0,0,.13-2,5,5,0,0,0-.75-1.88,3.4,3.4,0,0,0-.23-.3,4.11,4.11,0,0,0-1.88-.45,4.24,4.24,0,0,0-2.92,1.17,1.66,1.66,0,0,0-.32,0,3.42,3.42,0,0,0-2.64,1,8.5,8.5,0,0,1-4.61,2.52C696.21,225,690.74,228,692.59,227.64Zm22.63,2.93a3.28,3.28,0,0,0,2.3.17,2.84,2.84,0,0,0,1.72-1.39,2.71,2.71,0,0,0,.22-2.19,3,3,0,0,0-1.5-1.72v0a3.41,3.41,0,0,1,2.2,1.59,2.83,2.83,0,0,1,.2,1.26,3.31,3.31,0,0,1-.37,1.23,3,3,0,0,1-2,1.5,4,4,0,0,1-2.79-.42Z"/><path class="cls-7" d="M213.84,194.9a2.82,2.82,0,0,0-2.91-2.42,2.82,2.82,0,0,0-5.46-1.38,1.58,1.58,0,0,0-.15-.12,2.84,2.84,0,0,0-2.87,4.9l.06,0a.1.1,0,0,0,0,0,2.83,2.83,0,0,0,3.61,4.36,2.83,2.83,0,0,0,5.3-2,1.76,1.76,0,0,0-.09-.2h.14A2.84,2.84,0,0,0,213.84,194.9ZM210.39,197a.43.43,0,0,1-.55-.28.25.25,0,0,1,0-.12l-1.4-.4a1.41,1.41,0,0,1-.62.72l.62,1.31a.42.42,0,0,1,.31.05.43.43,0,0,1,.15.6.44.44,0,0,1-.6.15.45.45,0,0,1-.15-.6.24.24,0,0,1,.08-.09l-.62-1.32-.06,0a1.4,1.4,0,0,1-.73,0l-.4,1.39a.47.47,0,0,1,.2.24.44.44,0,1,1-.55-.28h.13l.4-1.41a1.42,1.42,0,0,1-.76-.67l-1.33.57a.4.4,0,0,1-.06.3.44.44,0,1,1-.13-.61l.09.09,1.34-.57h0a1.48,1.48,0,0,1,0-.72l-1.39-.4a.44.44,0,0,1-.24.2.44.44,0,0,1-.55-.29.43.43,0,0,1,.28-.55.44.44,0,0,1,.55.28.69.69,0,0,1,0,.13l1.4.4a1.47,1.47,0,0,1,.62-.73l-.62-1.3a.42.42,0,0,1-.31-.05.43.43,0,0,1-.15-.6.44.44,0,0,1,.6-.16.46.46,0,0,1,.15.61L206,193l.63,1.32.06,0a1.39,1.39,0,0,1,.73,0l.39-1.4a.39.39,0,0,1-.19-.24.43.43,0,0,1,.28-.55.44.44,0,0,1,.55.28.43.43,0,0,1-.28.55.27.27,0,0,1-.13,0l-.4,1.4a1.48,1.48,0,0,1,.76.68l1.33-.57a.44.44,0,1,1,.19.3s-.06-.06-.09-.09l-1.34.57h0a1.52,1.52,0,0,1,0,.73l1.39.4a.4.4,0,0,1,.24-.2.44.44,0,0,1,.55.28A.43.43,0,0,1,210.39,197Z"/><path class="cls-2" d="M201.58,195.79c-1.54-.16-5-.42-6,.2a29.23,29.23,0,0,0,5.9.15c-.83.82-3.84,3.22-8.17-.13C193.29,195.92,197.61,192,201.58,195.79Z"/><path class="cls-2" d="M200.34,193.68c-.79-1.34-2.61-4.23-3.75-4.72a29.25,29.25,0,0,0,3.4,4.82c-1.16-.17-4.88-1.15-4.77-6.63C195.3,187.1,201,188.22,200.34,193.68Z"/><path class="cls-7" d="M695.82,192.33a2.84,2.84,0,0,0-2.91-2.43,2.82,2.82,0,0,0-5.46-1.38.91.91,0,0,0-.16-.11,2.83,2.83,0,1,0-2.86,4.89l.05,0-.05,0a4.76,4.76,0,1,0,8.92,2.38.75.75,0,0,0-.1-.2h.15A2.85,2.85,0,0,0,695.82,192.33Zm-3.45,2.07a.45.45,0,0,1-.56-.28.57.57,0,0,1,0-.13l-1.4-.4a1.47,1.47,0,0,1-.62.73l.62,1.3a.49.49,0,0,1,.31,0,.44.44,0,0,1-.45.76.43.43,0,0,1-.15-.6.39.39,0,0,1,.08-.1l-.63-1.31-.06,0a1.36,1.36,0,0,1-.72,0l-.4,1.4a.4.4,0,0,1,.2.24.44.44,0,0,1-.28.55.44.44,0,1,1-.27-.83.25.25,0,0,1,.12,0l.4-1.4a1.48,1.48,0,0,1-.75-.67l-1.33.56a.44.44,0,0,1-.67.44.44.44,0,1,1,.48-.74l.09.09,1.34-.57h0a1.51,1.51,0,0,1,0-.73l-1.39-.4a.47.47,0,0,1-.24.2.44.44,0,1,1-.27-.83.43.43,0,0,1,.55.28.49.49,0,0,1,0,.12l1.41.41a1.38,1.38,0,0,1,.62-.73l-.63-1.31a.4.4,0,0,1-.3-.05.44.44,0,0,1-.16-.6.45.45,0,0,1,.6-.15.44.44,0,0,1,.16.6.38.38,0,0,1-.09.09l.63,1.32.06,0a1.48,1.48,0,0,1,.72,0l.4-1.39a.48.48,0,0,1-.2-.24.44.44,0,0,1,.29-.55.44.44,0,1,1,.27.83l-.13,0-.4,1.4a1.4,1.4,0,0,1,.75.67l1.34-.57a.4.4,0,0,1,.06-.3.44.44,0,1,1,.73.48.44.44,0,0,1-.6.13.38.38,0,0,1-.09-.09l-1.34.57h0a1.39,1.39,0,0,1,0,.73l1.4.39a.39.39,0,0,1,.24-.19.44.44,0,1,1,.27.83Z"/><path class="cls-2" d="M683.56,193.21c-1.55-.15-4.95-.42-6,.21a29.43,29.43,0,0,0,5.89.14c-.82.82-3.83,3.23-8.16-.12C675.27,193.34,679.59,189.42,683.56,193.21Z"/><path class="cls-2" d="M682.32,191.1c-.8-1.33-2.62-4.23-3.76-4.71a29.7,29.7,0,0,0,3.4,4.82c-1.15-.18-4.87-1.16-4.76-6.63C677.27,184.52,683,185.65,682.32,191.1Z"/><path class="cls-7" d="M658.7,242.84a1,1,0,0,0,.47-2,1,1,0,0,0-.47,2Z"/><path class="cls-7" d="M671.35,252.14a1.72,1.72,0,0,0,.78-3.35,1.72,1.72,0,0,0-.78,3.35Z"/><path class="cls-2" d="M696.41,244.54a1.72,1.72,0,0,0,.78-3.35,1.72,1.72,0,0,0-.78,3.35Z"/></svg>