<svg xmlns="http://www.w3.org/2000/svg" id="Calque_2" data-name="Calque 2" viewBox="0 0 842 595"><defs><style>.cls-5{font-family:Gothic821CondensedBT-Regular,Gothic821 Cn BT}.cls-2,.cls-5{fill:#fff}.cls-3{fill:#2fac66}.cls-5{font-size:66.46px}.cls-7{fill:#95c11f}.cls-19{fill:#b8c44a}.cls-19,.cls-20,.cls-21,.cls-22,.cls-23{fill-rule:evenodd}.cls-20{fill:#c6c8a2}.cls-21{fill:#74c4b8}.cls-22{fill:#df6149}.cls-23,.cls-26{fill:#627b6a}.cls-24{fill:#a6bbb3}.cls-25{fill:#9aaba1}.cls-28{fill:#91aba6}.cls-29{fill:#b7c1b8}.cls-30{fill:#b0a532}.cls-31{fill:#7e703e}.cls-32{fill:#81927f}.cls-33{fill:#678171}.cls-34{fill:#ad9b3a}.cls-35{fill:#998239}.cls-36{fill:#eda139}.cls-38{fill:#e09129}</style></defs><path d="M0 0h842v595H0z" class="cls-2"/><path d="M85 315h671v257H85z" class="cls-3"/><path fill="#fff" stroke="#fff" stroke-miterlimit="10" d="M735 578l-3-29-12-20 5-10 8-3 3 3 15-17 13-2 9 2v21l8 7v8l7 5 22-8 6-14 6-5 13 25v6h-14l-34 19-9 5-4 12-14 5-18 2-7-12z"/><path d="M69 355l3-25-3-16 2-18 9-3 4-6 8-12 7 4 4 29 6-3 4-3 6 2 6 5 5 3h3l8-3 5 3 10-3 8 3 4 4-2 10-6 16 4 9-21 8-8 5-9-5-3 8-12 1-4-5-7 8-9 1-2-13-11 8-9-12z" class="cls-2"/><text class="cls-5" transform="matrix(.94 0 0 1 207 398)">S<tspan x="29" y="0" letter-spacing="0em">OY</tspan><tspan x="88" y="0">ONS NOMBREUX</tspan><tspan x="-90" y="70">LE 1</tspan></text><text class="cls-5" transform="matrix(.55 0 0 .58 209 445)">er</text><text class="cls-5" transform="matrix(.94 0 0 1 234 468)"><tspan>MARS 2019 à 18h30 !</tspan></text><path d="M220 159h401v60H220z" class="cls-3"/><path d="M174 224h504v60H174z" class="cls-7"/><text fill="#fff" font-family="MoonFlowerBold,Moon Flower Bold" font-size="41" transform="matrix(.94 0 0 1 176 268)">...DISTRIBUTION DE GRAINES à semer partout !!!</text><text fill="#010101" font-family="MoonFlowerBold,Moon Flower Bold" font-size="50" transform="matrix(.94 0 0 1 230 205)">Témoignages de JARDINIERS...</text><text fill="#da1115" font-family="MoonFlowerBold,Moon Flower Bold" font-size="123" transform="matrix(.94 0 0 1 48 113)">Semons des coquelicots</text><text fill="#fff" font-family="Gotham-BookItalic,Gotham" font-size="30" font-style="italic" transform="matrix(.94 0 0 1 183 538)">Pla<tspan x="45" y="0" letter-spacing="0em">c</tspan><tspan x="62" y="0" letter-spacing="0">e du 8 Se</tspan><tspan x="201" y="0" letter-spacing="0">p</tspan><tspan x="221" y="0" letter-spacing="0em">t</tspan><tspan x="232" y="0">emb</tspan><tspan x="298" y="0" letter-spacing="0">r</tspan><tspan x="310" y="0" letter-spacing="0">e à Besan</tspan><tspan x="453" y="0" letter-spacing="0em">ç</tspan><tspan x="469" y="0">on</tspan></text><path d="M151 489h555-69l-69 1h-70l-69-1H152z" class="cls-2"/><path d="M711 275l2 3 1 1a11 11 0 0 1 3 2l5 7 3-4h-2a5 5 0 0 1-1-2l-2-1a19 19 0 0 1-1-4l-3-6a6 6 0 0 1-1-2c2 0 2 2 3 3h1l4 4a18 18 0 0 1 3 2 8 8 0 0 1 1 3v1l3-5h-2a9 9 0 0 1-2-3 12 12 0 0 1-2-2 15 15 0 0 1-2-4v-1l-1-6a7 7 0 0 1 2 2l1 1 3 3a16 16 0 0 1 1 1l1 2 1 1a11 11 0 0 1 0 1 23 23 0 0 1 0 3l2-2 2-6h-1c-3 0-4-3-5-4l-2-3a12 12 0 0 0-1-2 15 15 0 0 1-1-1c-1-1-2-2-1-3l2 2 1 1 1 1c3 2 7 4 8 7a31 31 0 0 0 1-6 3 3 0 0 1-3 0 13 13 0 0 1-2-3v-1l-2-2c-1-1-2-3-1-4l2 2 3 3a8 8 0 0 1 3 4 34 34 0 0 0 2-6c-2 1-3-1-4-2l-4-3a5 5 0 0 1 0-2 7 7 0 0 1 0-1c2 2 6 3 7 5l1 2a24 24 0 0 0 0-3v-3c-1 1-3-1-4-2l-1-1a9 9 0 0 1-1-2l6 5a4 4 0 0 0 0-3c-3-1 0-6 0-8l1 2v2a7 7 0 0 1 0 2v4a15 15 0 0 0 2-2 16 16 0 0 1 3-2 16 16 0 0 0 3-1l-1 2-3 4h-4a26 26 0 0 0 0 6l2-1c2-2 5-2 7-3l2-2-1 2a20 20 0 0 1-1 2 6 6 0 0 1-1 2l-1 1c-2 2-4 2-7 0a44 44 0 0 1-1 5l5-1a31 31 0 0 0 7-2 15 15 0 0 1-4 3l-1 1-2 2c-1 1-4 1-5-1a23 23 0 0 1-2 6l4-2h5a28 28 0 0 0 3-1l3-1c-1 2-2 3-4 3a46 46 0 0 1-4 2l-4 2h-4l-3 7a11 11 0 0 0 2-1 4 4 0 0 1 2-1h7a59 59 0 0 0 7-2l3-1-1 2-1 1v1h-1l-1 1-1 1a13 13 0 0 1-2 1h-1v1a11 11 0 0 1-3 1 18 18 0 0 1-4 0 18 18 0 0 1-5 0 4 4 0 0 1-2-1l-2 4 2-1a14 14 0 0 1 3 0h1l3 1a35 35 0 0 0 4 1 2 2 0 0 1 1 0 14 14 0 0 0 3 1l1-1v1l2-1-4 2-4 2a22 22 0 0 1-6 0h-3l-5-2-3 5h1a13 13 0 0 1 3 0 33 33 0 0 1 4 1 19 19 0 0 0 3 1l6 1h3a12 12 0 0 1-4 2 15 15 0 0 1-4 1h-5a18 18 0 0 1-6-1c-2-1-3-1-3-3a31 31 0 0 0-3 4 37 37 0 0 0-3 6l-2 1 3-5 2-3a6 6 0 0 0 1-3c-3-1-4-3-5-5a27 27 0 0 1-2-5v-1l-1-2-1-4z" class="cls-19"/><path d="M694 270l1 1 3 4a25 25 0 0 1 2 3l3 5 2-5a4 4 0 0 1-3 0l-3-6a38 38 0 0 1-2-5l-2-4 2 2h1a40 40 0 0 1 3 4l2 1 1 2 1 3a19 19 0 0 0 2-5 7 7 0 0 1-5-4l-2-6c-1-2-3-3-3-5a38 38 0 0 0 5 5l1 1 4 4 1-6a10 10 0 0 1-4-3l-2-4c-1-1-4-2-3-4 2 2 4 5 8 6a13 13 0 0 1 2 2v-2c-3-1-4-3-4-5l-3-2v-1l-1-2a2 2 0 0 1 0-2l1 2 7 5a23 23 0 0 0 1-3 9 9 0 0 1-5-4l-1-1-1-2a13 13 0 0 1-1-1v-4a17 17 0 0 0 2 3l2 2a29 29 0 0 1 4 3l-1-5-2-2h-1v-1l-2-2a17 17 0 0 1-1-2v-2l1 1 5 3a9 9 0 0 0 0-3 6 6 0 0 1-3-2l-1-1c0-2-2-2-1-4a29 29 0 0 0 4 4v-4a5 5 0 0 1-3-2v-2c0-1-2-2-1-3l4 4a34 34 0 0 1 0-4l-3-4v-2l3 4a16 16 0 0 1 1-6 15 15 0 0 1 2-2l1-1-2 7a15 15 0 0 0 0 3l4-4c-1 3-2 5-4 6l-1 4 4-2a7 7 0 0 1 3-3 8 8 0 0 1-3 5l-1 1-2 1v4c3 0 5-3 7-4l-1 2-1 2-4 3a29 29 0 0 1 0 3c3 0 5-3 8-4a2 2 0 0 1 1-1 32 32 0 0 1-2 4 7 7 0 0 1 0 1l-2 2c-2 2-3 3-5 3v5l2-1 2-1 2-1a24 24 0 0 0 4-4 3 3 0 0 1-1 3l-3 5-1 1a14 14 0 0 1-2 1 5 5 0 0 1-3 1v4l7-3a16 16 0 0 0 4-2l1-2a14 14 0 0 1-1 3l-1 1-1 2-1 1h-1a8 8 0 0 1-1 1l-6 3v2a14 14 0 0 1 4-1 11 11 0 0 0 1 0 15 15 0 0 0 4-2 23 23 0 0 1 3-1l1-1-1 2-1 1-7 6h-5l-1 6 7-2a12 12 0 0 0 5-1l1-2 2-1a6 6 0 0 1 2-1l-4 5-7 5h-1l-1 1h-5l-1 6c3-3 8-1 12-3a8 8 0 0 0 1-1h1l2-2a20 20 0 0 1-6 7l-3 1a14 14 0 0 1-1 1 13 13 0 0 1-3 0h-4l-1 6 4-2c2 0 6 0 8-2a21 21 0 0 1 4-2 33 33 0 0 1-3 4l-2 1a8 8 0 0 1-2 2 4 4 0 0 1-1 0c-3 2-6 5-10 3l-4 6a13 13 0 0 0-1 2l-1 1-1 2a1 1 0 0 1-1-1l2-3v-1l1-2 3-5c-2 0-4-2-4-3a10 10 0 0 1 0-2v-4l-2-6c-1-1-2-2-1-3z" class="cls-20"/><path d="M760 240c1 3-2 8-5 9 0-3 3-8 5-9zM762 253c-1 2-4 4-6 4 1-2 4-4 6-4zM768 254l-5 2c1-2 4-3 5-2zM770 248c-1 1-3 3-5 3 1-2 3-3 5-3zM762 259c-1 2-5 3-6 2 1-2 4-3 6-2zM765 245l-5 4c0-2 3-4 5-4zM749 231a1 1 0 0 0 0 1 1 1 0 0 0 1-1 1 1 0 0 0-1 0zM753 222a1 1 0 1 0 1 0 1 1 0 0 0-1 0zM745 209a1 1 0 1 0 1 2 1 1 0 0 0-1-2zM751 213a1 1 0 1 0 1 1 1 1 0 0 0-1-1zM753 206a1 1 0 0 0-1 1 1 1 0 0 0 1 0 1 1 0 0 0 0-1zM750 201a1 1 0 1 0 1 0 1 1 0 0 0-1 0zM754 228a1 1 0 1 0 1 1 1 1 0 0 0-1-1z" class="cls-21"/><path d="M744 220l-1-1-1 2a10 10 0 0 1-5 3 16 16 0 0 0 3-4l1-2a1 1 0 0 0-2 0v2a8 8 0 0 1-2 3 3 3 0 0 1-1 1 11 11 0 0 1-1-5l1-1a1 1 0 0 0-2 0v1l2 5a3 3 0 0 0-1 2 43 43 0 0 1-3 4 54 54 0 0 0 0-14l1-2c3 0 6-4 6-7v-2s-2 0-1 1l1 2c-1 2-4 6-6 6a12 12 0 0 0 2-3l1-2h-1v1a5 5 0 0 1-3 3l2-7v-2a1 1 0 0 0-1 0 1 1 0 0 0 1 2l-2 7a4 4 0 0 1-1-3l1-1a1 1 0 0 0-2 0l1 1a7 7 0 0 1 0 3 11 11 0 0 1-3-6l1-1a1 1 0 0 0-2 0l1 1a11 11 0 0 0 3 7l1 2a51 51 0 0 1-1 13 14 14 0 0 0-2-5v-1c0-2 1-5-1-7l-2-2a1 1 0 0 0-1 1l2 1c2 2 2 4 1 7a21 21 0 0 1-1-3l-1-2-1 1 1 1a6 6 0 0 1 1 2 8 8 0 0 1-4-2c-1-1 0-2-2-2l-1 1 3 1a34 34 0 0 0 4 3 6 6 0 0 1-3 1l-2-1v2h2l4-1 1 1c2 3 2 5 1 10-1 3-2 8-4 10l1 1 5-15a52 52 0 0 1 3-5 3 3 0 0 0 2-1 9 9 0 0 0 3 1h1v-1l-1 1a3 3 0 0 1-3-1 12 12 0 0 0 5-4l2-1z" class="cls-22"/><path d="M722 304l5-4c0-2-2-5 1-6 3 1 1 4 0 6l2-2c1-2-1-6 1-7a2 2 0 0 1 2 0c2 2-1 5-2 7 2-2 5-4 4-6s-4-5-1-6c4 1 2 5 2 6 1-1 3-2 3-4-1-2-4-3-4-5 3-3 5 3 5 4a19 19 0 0 0 2-4c-1 0-5-2-4-4 2-1 4 2 5 3l1-5c-2 0-5-2-3-4l4 3c0-2-1-6 1-7a2 2 0 0 1 2 1c1 3-4 6-3 8 0-2 3-3 5-2-1 3-6 2-6 5 2-2 4-2 5-1-2 4-4 2-6 3l-2 3c3 0 5-2 7 1-2 4-5 0-7 0l-3 4c2 0 5-4 6-1a4 4 0 0 1 1 0c0 4-6 1-7 2a12 12 0 0 0-4 4c2-1 5-3 7-1a2 2 0 0 1-2 3c-1 1-4-2-6-1l-4 3c2 0 7-2 7 2a3 3 0 0 1-2 2c-2 1-4-2-6-3l-6 4v-1z" class="cls-23"/><path d="M81 182c-1 4 3 10 6 11 0-4-3-10-6-11zM79 198c0 3 5 6 8 6-2-3-6-6-8-6zM70 199c1 2 5 3 7 3-1-2-5-3-7-3zM69 191c0 2 4 5 5 5-1-2-3-5-5-5zM78 206c2 2 7 3 9 3-2-2-6-4-9-3zM75 188c0 2 4 5 6 6 0-3-4-6-6-6zM95 170a1 1 0 0 1 1 1 1 1 0 1 1-1-1zM90 158a1 1 0 1 1-1 1 1 1 0 0 1 1-1zM100 142a1 1 0 1 1-1 1 1 1 0 0 1 1-1zM93 147a1 1 0 1 1-1 1 1 1 0 0 1 1-1zM91 138a1 1 0 0 1 0 2 1 1 0 1 1 0-2zM94 131a1 1 0 1 1-1 1 1 1 0 0 1 1-1zM89 166a1 1 0 1 1-2 1 1 1 0 0 1 2-1z" class="cls-21"/><path d="M143 225l-3 3-1 1a14 14 0 0 0-3 4c-3 2-7 5-7 9l-5-6h3a7 7 0 0 0 2-2l2-2 1-5 4-7c1-1 2-2 1-3l-4 3-1 1-5 4a24 24 0 0 0-3 4 11 11 0 0 0-2 3v1l-3-6 1-1a11 11 0 0 0 4-2 15 15 0 0 0 2-4 18 18 0 0 0 2-5v-1l2-7a9 9 0 0 0-3 2v1l-5 4a20 20 0 0 0-1 2l-2 2v1a17 17 0 0 0-1 2v3l-2-3-3-7 2 1c3 0 5-5 6-6l3-4a16 16 0 0 1 1-2l1-2 2-3c-2 0-2 2-3 2l-2 1-1 1c-4 3-9 6-10 9a40 40 0 0 1-2-7 4 4 0 0 0 5-1 17 17 0 0 0 2-3l1-1 2-3 2-6-3 4c-2 1-4 1-5 3-2 1-4 3-4 6a43 43 0 0 1-2-8c3 1 4-1 6-3l4-4a7 7 0 0 0 1-2 9 9 0 0 0 0-2c-3 3-8 4-10 7l-1 2a30 30 0 0 1 0-3v-4l5-2v-2h1a11 11 0 0 0 2-3c-3 2-7 3-8 6a5 5 0 0 1 0-3c3-2 0-8 0-11l-1 3-1 2a9 9 0 0 0 0 4l1 1v4l-4-3a20 20 0 0 0-3-2 20 20 0 0 1-4-2l2 3 4 4 5 1a33 33 0 0 1 0 8l-4-2c-2-3-5-3-8-5l-2-2v3a24 24 0 0 0 2 3 9 9 0 0 0 1 3 15 15 0 0 0 1 1c3 2 6 2 10 0a58 58 0 0 0 1 6l-7-2a40 40 0 0 1-8-2 20 20 0 0 0 4 5h2l2 3c2 1 6 1 8-2a30 30 0 0 0 2 8l-6-2h-6a35 35 0 0 1-4-1l-4-2c1 3 3 3 5 4a59 59 0 0 0 6 3 51 51 0 0 0 5 2c2 0 3 2 5 0l3 10a14 14 0 0 1-2-2 5 5 0 0 0-3-1h-8a77 77 0 0 1-9-3l-5-1 2 2 1 2 1 1h1l1 1 2 1a18 18 0 0 0 1 2h2l1 1a14 14 0 0 0 3 1 24 24 0 0 0 6 1 22 22 0 0 0 5 0 6 6 0 0 0 3-2l3 5-3-1-4 1h-1l-4 1a45 45 0 0 1-6 1 18 18 0 0 1-4 0h-2c-1 0 0 0 0 0h-2c1 2 3 2 5 2l5 3a29 29 0 0 0 8 0h4c2-1 5-1 6-3l4 7-2-1a16 16 0 0 0-3 1 44 44 0 0 0-5 1 25 25 0 0 1-4 1l-9 1h-3a15 15 0 0 0 5 4h12a23 23 0 0 0 8-1c2 0 4-1 4-3a39 39 0 0 1 3 5 50 50 0 0 1 4 7l3 2-4-7-2-4a8 8 0 0 1-2-4c4 0 5-4 7-6a34 34 0 0 0 2-6l1-2v-2l2-5z" class="cls-19"/><path d="M165 218l-1 2-4 4a31 31 0 0 0-3 4l-4 7-2-7a5 5 0 0 0 3 0c3-2 3-5 4-7a51 51 0 0 0 3-7l3-5c-2 0-2 1-3 2l-2 1-3 4-2 2-2 2-2 5a24 24 0 0 1-2-7 9 9 0 0 0 7-5l3-7c1-3 4-5 3-8l-6 7-2 2-6 5-1-8a13 13 0 0 0 6-4l3-5c1-2 4-2 4-5l-10 8a17 17 0 0 0-3 2l-1-3c4 0 6-3 6-6l3-3 1-2 1-2a3 3 0 0 0 0-2l-1 2-10 7v-4l5-5 2-2 1-2a20 20 0 0 0 1-1c1-2 2-4 1-6a21 21 0 0 1-3 5l-3 2-4 4v-7l3-2 1-1 1-1a23 23 0 0 0 2-3 20 20 0 0 0 1-2v-2l-1 1-7 4a12 12 0 0 1 0-4 8 8 0 0 0 5-3v-2c1-1 3-2 3-4a37 37 0 0 1-7 5l1-5a7 7 0 0 0 3-3v-2c1-2 3-2 2-5l-5 6a41 41 0 0 0-1-5h1l3-6 1-2-5 5a20 20 0 0 0-1-8 22 22 0 0 0-2-2l-1-2c0 3 1 7 3 9a20 20 0 0 1 0 4c-2-2-4-4-6-4 1 3 3 6 6 6v6l-4-3a9 9 0 0 0-4-3c0 3 2 5 4 6l1 2 3 1c1 1-1 2-1 3v2c-4 0-6-4-9-6l2 4 1 1 5 5a36 36 0 0 0 0 4c-4 0-7-4-10-6a3 3 0 0 0-2-1 40 40 0 0 0 2 5 9 9 0 0 0 1 2l3 3 5 4 1 6-3-2-2-1-3-2a32 32 0 0 1-6-4l2 3 4 7 2 1a18 18 0 0 0 2 2 6 6 0 0 0 3 0v6l-8-4a21 21 0 0 1-5-3l-2-2 1 4 2 2 2 2 1 1a12 12 0 0 0 2 1l8 4v3l-5-2a14 14 0 0 1-2 0 21 21 0 0 1-5-2 30 30 0 0 0-4-1l-1-2 1 3 1 1 9 7c2 1 4 3 7 1l1 8c-2-2-6-2-9-3-2 0-4 0-6-2l-1-1-3-2a8 8 0 0 0-3-2l6 7c2 3 5 5 8 6l1 1 3 1 5 1 2 6c-4-3-10-1-15-3a9 9 0 0 1-1-1l-2-1-3-2a25 25 0 0 0 8 8l3 2a18 18 0 0 0 2 1 17 17 0 0 0 3 1h6l2 7-5-2-11-2a26 26 0 0 0-5-3 46 46 0 0 0 4 5l2 1a10 10 0 0 0 3 2 6 6 0 0 0 1 1c4 2 8 6 13 4l6 8a15 15 0 0 1 0 1l2 2 1 3a2 2 0 0 0 2-1l-3-5v-1l-1-2-4-6 5-5a15 15 0 0 0-1-2v-5l4-8c1-1 2-3 1-4z" class="cls-20"/><path d="M101 153l1-1 1 2a13 13 0 0 0 6 5 21 21 0 0 1-3-6c0-1-2-2-1-3a1 1 0 0 1 2 0v3a10 10 0 0 0 2 5 4 4 0 0 0 2 0 14 14 0 0 0 1-6l-1-2a1 1 0 0 1 2 1v1l-2 6a4 4 0 0 1 1 3 57 57 0 0 0 4 5 69 69 0 0 1 0-18l-1-2c-4-1-9-6-8-10v-2c1-1 2 0 2 1-1 1-2 1-1 2 0 4 4 8 7 8a17 17 0 0 1-3-4l-1-2h1v2a7 7 0 0 0 3 3l-2-9v-2a1 1 0 0 1 2 0 2 2 0 0 1-1 2l2 9a5 5 0 0 0 1-4v-1a1 1 0 0 1 1 0v1a9 9 0 0 0-1 4 14 14 0 0 0 4-7l-1-3a1 1 0 0 1 2 1l-1 2a15 15 0 0 1-4 8v3a66 66 0 0 0 0 17 18 18 0 0 1 2-6l1-2c0-3-1-7 2-9 0-1 1-3 2-2a1 1 0 0 1 1 1l-3 1c-2 2-2 6-1 9a29 29 0 0 0 2-4l1-3 1 2-2 1a7 7 0 0 0-1 3 10 10 0 0 0 6-3c1-1 0-3 2-3 1 0 2 2 1 3l-3 1a44 44 0 0 1-6 4 7 7 0 0 0 4 0l3-1c1 0 2 2-1 3l-2-1-5-1-1 1c-3 4-3 8-2 13l5 14h-1c-4-8-5-17-6-19a67 67 0 0 0-4-6 4 4 0 0 1-2-1 12 12 0 0 1-4 1h-2v-1h2a4 4 0 0 0 3-1 15 15 0 0 1-6-4l-2-2z" class="cls-22"/><path d="M129 262l-7-5c0-3 3-7-1-9-4 3-1 7 0 9l-3-2c-1-3 2-8-1-10a2 2 0 0 0-2 0c-3 2 1 7 2 9-3-3-7-5-6-8s6-6 2-8c-5 2-2 7-3 9l-4-6c2-3 6-4 6-7-4-3-6 4-7 6l-2-5c2-1 6-3 5-5-3-2-6 2-6 4l-2-7c2 0 6-3 4-5-2-1-4 2-5 4 0-2 2-8-2-9a2 2 0 0 0-2 1c-2 3 5 7 4 10-1-2-4-4-6-3 1 5 7 4 7 7-2-2-5-3-6-1 2 4 5 2 7 4 2 1 1 2 2 4-2 0-6-3-8 1 2 5 6 0 9 0l4 5c-3 0-6-5-8-2a6 6 0 0 0-1 1c0 5 7 1 9 2a15 15 0 0 1 5 5c-3-1-7-3-9 0 0 1 0 3 2 3l8-2 5 5c-2 0-9-2-9 2a3 3 0 0 0 2 3c3 1 6-2 8-4 3 1 5 4 9 5v-1z" class="cls-23"/><path d="M772 538c-1 1-7 4-23 3l-1-1h8l8-1c3 0 7 0 9-2s3-5 1-7a16 16 0 0 0-8-3 26 26 0 0 1 6 2c9 4 1 9 0 9zM747 546c-3 0-3-3-3-5h3a2 2 0 0 0 1 0s2 5-1 5z" class="cls-24"/><path d="M756 509a25 25 0 0 0-5 2l6-3a28 28 0 0 1 5-2 4 4 0 0 1 2-1 32 32 0 0 1-4 2 40 40 0 0 0-4 2zM776 543v-1a145 145 0 0 0 14 7s-10-3-14-6zM792 549a1 1 0 0 1 0 1 1 1 0 0 1 0-1zM767 526h-3s4-15-1-19a14 14 0 0 1 2-1c6 2 2 15 2 20z" class="cls-25"/><path d="M736 531l4-2 1 8c-2 0-6-3-5-6z" class="cls-26"/><path d="M750 511s-4 3-5 15c-1 5 1 13 2 15l-4-1-2-16c0-8 7-14 8-15l7-3a17 17 0 0 1 2-1 3 3 0 0 1 3 0l-11 6zM730 524c5-2 8 3 10 4a11 11 0 0 0-3 1c0-1-2-5-7-5z" class="cls-24"/><path d="M768 538c-10 2-17 1-21 1a12 12 0 0 1 0-2l14-11 12 4c4 5-2 8-5 8zM760 526l-13 10-1-2 12-8h2z" class="cls-24"/><path d="M746 527l10-1a35 35 0 0 0-10 7 26 26 0 0 1 0-6z" class="cls-26"/><path d="M762 553c-2 0-4 2-5 0l4-1 30-3a2 2 0 0 0 0 1l-29 3zM815 539v-1a7 7 0 0 0 3 4 1 1 0 0 1-1 0 6 6 0 0 1-2-3zM732 525c-3 0-11 3 3 17v4c-3-3-12-11-9-18a5 5 0 0 1 6-3z" class="cls-25"/><path fill="#a2762d" d="M821 536c1 2 4 11 8 8 2-2-1-7-2-9s-6-8-8-7c-4 1 0 5 2 8zm-1-5a1 1 0 0 1 0 1 1 1 0 0 1 0-1zm0-2a1 1 0 0 1 0-1 1 1 0 0 1 0 1zm2 4a1 1 0 0 1 0-1 1 1 0 0 1 0 1zm2 0a1 1 0 0 1 0-1 1 1 0 0 1 0 1zm2 3a1 1 0 0 1 0-1 1 1 0 0 1 0 1zm2 4a1 1 0 0 1 0 1 1 1 0 0 1 0-1zm-1 2a1 1 0 0 1 0 1 1 1 0 0 1 0-1zm0-5a1 1 0 0 1 0 1 1 1 0 0 1 0-1zm-1 2a1 1 0 0 1 0-1 1 1 0 0 1 0 1zm0 2a1 1 0 0 1 0 1 1 1 0 0 1 0-1zm-2-4a1 1 0 0 1 0-1 1 1 0 0 1 0 1zm0 2a1 1 0 0 1 0 1 1 1 0 0 1 0-1zm-1-4a1 1 0 0 1 0-1 1 1 0 0 1 0 1zm0 2a1 1 0 0 1 0 1 1 1 0 0 1 0-1zm-1-2a1 1 0 0 1 0 1 1 1 0 0 1 0-1zm0-5a1 1 0 0 1 0 1 1 1 0 0 1 0-1zm-2 4a1 1 0 0 1 0-1 1 1 0 0 1 1 1z"/><path d="M773 560l18-9c-1 4 2 5 3 6l-22 13 1-10z" class="cls-24"/><path d="M742 540l1 1s0 6 4 6c3 0 2-5 2-5a48 48 0 0 0 15 0c9-2 11-4 11-5l-1 13c-2 0-10 2-14 1-4 0-4 2-4 3h7l12-2-1 7c-3 0-3 4-3 7 0 2 0 6 2 5 0 7-26 15-34-1l-1-13-2-21a23 23 0 0 0 6 4z" class="cls-28"/><path d="M736 532c0 3 3 5 5 6a6 6 0 0 0 1 1l-5-3c-1-1-2-3-1-4z" class="cls-29"/><path d="M737 571s2 6 8 8c13 4 26 0 28-5 0 1-4 8-19 9-14 0-19-10-17-12z" class="cls-25"/><path d="M793 550l21-11a5 5 0 0 0 2 3l-19 13c-3 1-5-3-4-5z" class="cls-24"/><path d="M791 550a2 2 0 0 0 1 0 4 4 0 0 0 5 6c-1 1-7-1-6-6zM816 531a13 13 0 0 0 2 4l4 6a15 15 0 0 0 2 3c-2 0-4-4-5-5s-4-5-3-8z" class="cls-25"/><path d="M816 538a3 3 0 0 1 0-2l4 5h-2l-2-3z" class="cls-28"/><path d="M154 338l-2-10a16 16 0 0 1-2-5c0-2 0-6-2-7s-1 8-1 9v1l-2-8-2-6c-1 0-2 2-1 6a45 45 0 0 1 1 6c0 1 0 1 0 0a35 35 0 0 0-2-5c0-2-2-7-3-6s0 6 0 6a368 368 0 0 1 1 8l-2-5c0-2-3-8-4-5 0 4 2 9 4 13l4 12 13-4z" class="cls-30"/><path d="M152 327c2 4 2 8 2 12l2 2c1-4 4-7 4-11 1-5 5-9 4-10-1-2-4 4-5 5s4-10 2-11-5 8-5 8h-1a43 43 0 0 1 3-6v-5c-2 0-5 7-6 12h-1c1-2 3-10 1-11s-2 4-2 4a8 8 0 0 1 0 4l2 7z" class="cls-30"/><path d="M160 347l-2-2c0-2-3-5-4-6l-12 4c-1 1 1 2 1 6a10 10 0 0 1-2 3c4 2 19-4 19-5z" class="cls-31"/><path d="M140 343l-1-3-3 5a26 26 0 0 0 6 2l-2-4z" class="cls-31"/><path d="M123 334a2 2 0 0 0 0 1 5 5 0 0 0 2-1 1 1 0 0 0 0-1 4 4 0 0 1-2 1z" class="cls-32"/><path d="M123 335a5 5 0 0 0 1 3l3-1-1-3a5 5 0 0 1-3 1z" class="cls-33"/><path d="M124 339c-1 1 0 2 1 2l3-2v-2a5 5 0 0 1-4 2z" class="cls-32"/><path d="M128 340l-3 2s3 5 3 8c1 1 0 6 2 8 1 1 4 3 6 0 2-5-3-9-5-13-1-1-3-3-3-5z" class="cls-33"/><path d="M123 331v0z" class="cls-25"/><path d="M122 333s-4-5-2-6 3 0 3 1c1 1 2 3 1 4a32 32 0 0 1 8-1l-2-4c-3-8-10-23-16-20-2 1-4 4-4 10 0 5 5 17 6 20 1-2 6-4 6-4z" class="cls-24"/><path d="M121 327a1 1 0 0 0-1 1 10 10 0 0 0 3 5v1a3 3 0 0 0 1-1 6 6 0 0 0-1-4l-2-2zm2 5a1 1 0 0 1-1 0 1 1 0 0 1 0-1 1 1 0 0 1 1 0v1z" class="cls-25"/><path d="M99 308l-1-13-1-7-1-5a37 37 0 0 0-3-5v3l3 11 3 16z" class="cls-28"/><path d="M103 327a23 23 0 0 0 1 3 14 14 0 0 1 5-2 20 20 0 0 0-1-2c-2-1-5 1-5 1zm3 2a1 1 0 0 1 0-1 1 1 0 0 1 0-1 1 1 0 1 1 0 2z" class="cls-34"/><path d="M92 278v1a111 111 0 0 0 0-1z" class="cls-28"/><path d="M98 308a6 6 0 0 0 2 3 17 17 0 0 1-1-3 4 4 0 0 1-1 0z" class="cls-24"/><path d="M106 328c1 0 0 0 0 0z" class="cls-35"/><path d="M105 335l6 16 2 5v3c0 6 6 5 6 0 0-2-2-3-3-5l-5-21s-4 0-6 2zM104 333c2-2 4-2 6-2l-1-2a14 14 0 0 0-5 1 7 7 0 0 0 0 3z" class="cls-34"/><path d="M98 321a3 3 0 0 1 0-1v1z" class="cls-28"/><path d="M105 333v1a10 10 0 0 1 6-2l-6 1z" class="cls-35"/><path d="M99 308l-7-29-1 2 6 25a2 2 0 0 0 2 2z" class="cls-24"/><path d="M96 367c4-1 2-7 1-8-2-5 1-18 1-23a19 19 0 0 0-6 0v15l2 8a7 7 0 0 0-1 4c0 1-1 5 3 4zM97 328a5 5 0 0 0-5 0v3a26 26 0 0 1 5 0 27 27 0 0 0 0-3zm-1 2a1 1 0 0 1-1 0v-1a1 1 0 0 1 1 1z" class="cls-34"/><path d="M99 315a1 1 0 0 0 0-2h-2l2 2z" class="cls-28"/><path d="M97 334v-2l-5-1 1 3h4z" class="cls-34"/><path d="M99 325v-2l-1-1v-2a3 3 0 0 0-1-1l-2-5 1 6c-1 1-2 1-2 3a25 25 0 0 0 0 3 5 5 0 0 1 2 1 3 3 0 0 1 3-2z" class="cls-28"/><path d="M97 334h-4l-1 1a19 19 0 0 1 6 0l-1-1zM95 329v0z" class="cls-35"/><path d="M99 316a2 2 0 0 0 1-2 2 2 0 0 0-1-2l-3 1c0 1 1 3 3 3zm-1-3a1 1 0 0 1 1 0 2 2 0 0 1 0 2 1 1 0 0 1-1 0c-1 1-2-2 0-2z" class="cls-28"/><path d="M95 313a31 31 0 0 0 2 6 3 3 0 0 1 3 1 2 2 0 0 1 0 2 5 5 0 0 0 0 2 4 4 0 0 1 3 2 4 4 0 0 1 3-1l-5-7-1-7s-2 0-3-4l-6-25c-2 5 0 11 1 15l2 13a5 5 0 0 1 1 3zm1 0a2 2 0 0 1 3 0 2 2 0 0 1 0 3c-2 1-4-2-3-3z" class="cls-24"/><path d="M75 349a5 5 0 0 0 2 1h3l-1-3a21 21 0 0 1 2-6 4 4 0 0 0 0-3 32 32 0 0 0-4 0s-2 2-1 4a8 8 0 0 1 1 2l-2 5z" class="cls-36"/><path d="M81 337l1-10c0-2 1-2 2-2l3-1v-2s3-21 2-22-1 10-2 15l-1 4c-3 0-2-3-2-5l1-14-1 7-1 7c0 1 0 5-2 4s-2-3-1-5v-7 1l-1 7c0 1 0 4-2 4a1 1 0 0 1-1-1 99 99 0 0 1 0-12v-5l-2 13v9c1 2 2 1 3 2a5 5 0 0 1 2 3l-3 10a6 6 0 0 0 3 0 6 6 0 0 0 2 0zm-3-2a1 1 0 0 1 1 0 1 1 0 0 1 1 0 1 1 0 0 1-1 1l-1-1z" class="cls-29"/><path fill="#8b9d8b" d="M79 335v1a1 1 0 0 0 0-1z"/><path d="M80 351l-5-1v1a10 10 0 0 0 5 0z" class="cls-38"/><path d="M75 351c-1 3-2 8 1 8a3 3 0 0 0 3-3v-4a17 17 0 0 1-4-1z" class="cls-36"/><path d="M80 350h-5c-1 0-1 0 0 0h5z" class="cls-38"/><path d="M780 226c3 0 3-5 0-5s-3 5 0 5zM694 189c2 0 2-4 0-4s-3 4 0 4zM639 181c3 0 3-4 0-4s-3 4 0 4zM671 184c3 0 3-5 0-5s-2 5 0 5z" class="cls-3"/><path d="M773 276c5 0 5-7 0-7s-5 7 0 7zM715 172c5 0 5-7 0-7s-5 7 0 7z" class="cls-7"/><path d="M721 191c5 0 5-8 0-8s-4 8 0 8z" class="cls-3"/><path d="M652 211c4 0 4-7 0-7s-5 7 0 7z" class="cls-7"/><path d="M678 211c3 0 3-4 0-4s-3 4 0 4zM794 188a1 1 0 0 0 0-1 1 1 0 0 0 0 1zM759 174a1 1 0 0 0 0-2 1 1 0 0 0 0 2zM737 170a1 1 0 0 0 0-1 1 1 0 0 0 0 1zM750 171a1 1 0 0 0 0-1 1 1 0 0 0 0 1z" class="cls-3"/><path d="M791 209a1 1 0 0 0 0-3 1 1 0 0 0 0 3zM768 167a1 1 0 0 0 0-3 1 1 0 0 0 0 3z" class="cls-7"/><path d="M771 174a1 1 0 0 0 0-3 1 1 0 0 0 0 3z" class="cls-3"/><path d="M742 183a1 1 0 0 0 0-3 1 1 0 0 0 0 3z" class="cls-7"/><path d="M753 183a1 1 0 0 0 0-2 1 1 0 0 0 0 2zM79 123c0-3-4-3-4 0s4 2 4 0zM42 209c0-3-4-3-4 0s4 3 4 0zM34 263c0-3-5-3-5 0s5 3 5 0zM36 231c0-3-4-3-4 0s4 3 4 0z" class="cls-3"/><path d="M130 130c0-5-8-5-8 0s8 4 8 0zM25 187c0-4-7-5-7 0s7 5 7 0z" class="cls-7"/><path d="M44 181c0-5-8-5-8 0s8 5 8 0z" class="cls-3"/><path d="M64 251c0-5-8-5-8 0s8 5 8 0z" class="cls-7"/><path d="M64 224c0-2-4-2-4 0s4 3 4 0zM182 156a1 1 0 0 0 0-1 1 1 0 0 0 0 1zM147 142a1 1 0 0 0 0-2 1 1 0 0 0 0 2zM125 138a1 1 0 0 0 0-1 1 1 0 0 0 0 1zM138 139a1 1 0 0 0 0-1 1 1 0 0 0 0 1z" class="cls-3"/><path d="M179 177a1 1 0 0 0 0-3 1 1 0 0 0 0 3zM156 135a1 1 0 0 0 0-3 1 1 0 0 0 0 3z" class="cls-7"/><path d="M158 142a1 1 0 0 0 0-3 1 1 0 0 0 0 3z" class="cls-3"/><path d="M130 151a1 1 0 0 0 0-3 1 1 0 0 0 0 3z" class="cls-7"/><path d="M141 151a1 1 0 0 0 0-2 1 1 0 0 0 0 2z" class="cls-3"/></svg>