<svg xmlns="http://www.w3.org/2000/svg" id="Calque_6" data-name="Calque 6" viewBox="0 0 728 575"><defs><style>.cls-1,.cls-7{fill:none;stroke-miterlimit:10}.cls-1{stroke:#e6213c;stroke-width:1.51px}.cls-7{stroke:#1d1d1b;stroke-width:1.59px}.cls-8{fill:#e6332a}.cls-11{fill:#f39200}.cls-12{fill:#e94e1b}.cls-17{letter-spacing:-.01em}.cls-23{fill:#be1622}.cls-24{fill:#d60b52}</style></defs><path d="M25 498h1" class="cls-1"/><path fill="none" stroke="#e6213c" stroke-dasharray="2 3 2 3" stroke-miterlimit="10" stroke-width="2" d="M29 498h8"/><path fill="none" stroke="#e6213c" stroke-dasharray="2 3 2 3 2 3" stroke-miterlimit="10" stroke-width="2" d="M38 498h663"/><path d="M703 498" class="cls-1"/><path fill="#1d1d1b" d="M206 539h323v36H206z"/><path fill="none" stroke="#e6213c" stroke-miterlimit="10" stroke-width="2" d="M703 492"/><text fill="#fff" font-family="MoonFlowerBold,Moon Flower Bold" font-size="23" transform="matrix(1 0 0 1.06 217 565)">... Chacun apporte un ptit truc pour l’apéro !</text><path d="M431 530a6 6 0 1 1-11 0v-5h11z" class="cls-7" transform="translate(-57 -10)"/><path d="M368 526v8M369 534v-8M364 534h9" class="cls-7"/><path d="M435 544s3-3 9-3c3 0 9 0 12 4M444 538c3-2 6 0 8-4M439 531a2 2 0 0 1 2-2c2 0 4 3 2 5l-7 4M414 544s-2-3-8-3c-4 0-9 0-13 4M406 538c-3-2-7 0-9-4M411 531a2 2 0 0 0-2-2c-2 0-5 3-2 5l7 4" class="cls-7" transform="translate(-57 -10)"/><path d="M88 222h577v231H88z" class="cls-8"/><text fill="#fff" font-family="Gothic821CondensedBT-Regular,Gothic821 Cn BT" font-size="57" transform="matrix(.94 0 0 1 192 296)">S<tspan x="25" y="0" letter-spacing="0em">OY</tspan><tspan x="75" y="0">ONS NOMBREUX</tspan><tspan x="-54" y="60">LE 5 avril 2019 à 18h30 !</tspan></text><path d="M204 108h333v51H204z" class="cls-11"/><path d="M171 163h415v51H171z" class="cls-12"/><text fill="#fff" font-family="MoonFlowerBold,Moon Flower Bold" font-size="35" transform="matrix(.94 0 0 1 184 201)">...graines de coquelicots, Actus, Salsa !</text><text fill="#fff" font-family="MoonFlowerBold,Moon Flower Bold" font-size="43" transform="matrix(.94 0 0 1 212 147)">Projection vidéo surprise ...</text><text fill="#da1115" font-family="MoonFlowerBold,Moon Flower Bold" font-size="86" transform="matrix(.94 0 0 1 133 73)">Les JEUNES à LA UNE !</text><text fill="#fff" font-family="Gotham-BookItalic,Gotham" font-size="26" font-style="italic" transform="matrix(.94 0 0 1 171 425)">Pla<tspan x="39" y="0" class="cls-17">c</tspan><tspan x="53" y="0">e du 8 Se</tspan><tspan x="173" y="0" letter-spacing="0">p</tspan><tspan x="190" y="0" letter-spacing="0em">t</tspan><tspan x="200" y="0">emb</tspan><tspan x="257" y="0" letter-spacing="0">r</tspan><tspan x="267" y="0">e à Besan</tspan><tspan x="390" y="0" class="cls-17">ç</tspan><tspan x="404" y="0">on</tspan></text><path fill="#fff" d="M201 392h478l-60 1H231l-30-1z" transform="translate(-57 -10)"/><path d="M726 107a2 2 0 0 0 0 3 2 2 0 0 0 0-3zM765 113a2 2 0 0 0 0 3 2 2 0 0 0 0-3z" class="cls-11" transform="translate(-57 -10)"/><path d="M742 112a2 2 0 0 0 0 3 2 2 0 0 0 0-3z" class="cls-12" transform="translate(-57 -10)"/><path d="M711 120c-3 0-3 5 0 5s3-5 0-5zM706 106c-3 0-3 5 0 5s4-5 0-5z" class="cls-11" transform="translate(-57 -10)"/><path d="M757 92c-4 0-4 5 0 5s3-5 0-5z" class="cls-12" transform="translate(-57 -10)"/><path d="M738 91a2 2 0 0 0 0 4 2 2 0 0 0 0-4z" class="cls-11" transform="translate(-57 -10)"/><path d="M127 179s-2-6 4-6 3 11 3 11l2 1s1 0 2 2v14s1 3-1 3v-1-2l-1-4v3h-1a72 72 0 0 1 0 9l-2 15h-1l1 1a6 6 0 0 1 0 3 1 1 0 0 1-1 0 5 5 0 0 1-2-1v3l-2-1s-2-3 0-3v-2s-3-10-2-16l1-7h-2v-11l-1 11h-1a2 2 0 0 0 0 1c0 1 0 2-1 1v-2h-1l2-15a3 3 0 0 1 1-3l3-4zM89 225v2l1 2c-1 0-3 1-4-2v-3l-1-1s1 3-1 3-2 0-2-3h-1v-25h-1v-10l-2-3s-8-5-7-7l6-6s0-2 1-1 3 1 1 2h-1l-2 4s3 4 5 4a2 2 0 0 0 1-1s-4-4-1-7 6 0 6 2 1 4-1 4v1l3-3 5-7a31 31 0 0 0 1-4h1l1 2a8 8 0 0 0-2 1l1 2s-3 9-6 11l2 15h-1l-1 29zM57 144s8 4 17-1 16-1 17-2h1l2 16h-5c-5-2-10 2-15 4-3 1-12 2-14-2l-3-15z" class="cls-8" transform="translate(-57 -10)"/><path d="M95 140h1v45h-1z" class="cls-8" transform="rotate(-7 -15 616)"/><path d="M201 185l-1-3c-1-3 1-5-3-6s-4 7-5 7-2 0-5-4a4 4 0 0 0 0-1 1 1 0 0 1-1-1 1 1 0 0 0-1-1v2a4 4 0 0 1 1 1 5 5 0 0 0 1 5 35 35 0 0 0 5 4l1 5a4 4 0 0 0 0 3 28 28 0 0 0 0 8l1 13h1a12 12 0 0 0-1 3 1 1 0 0 0 2 1s0 1 2 1a2 2 0 0 0 1-1v-2h1l1-15v-13a25 25 0 0 0 3 9 3 3 0 0 0 2-2v-3a14 14 0 0 1-3-7c0-3-2-3-2-3z" class="cls-8" transform="translate(-57 -10)"/><rect width="2" height="2" x="184" y="176" class="cls-8" rx="1" ry="1" transform="rotate(-142 155 182)"/><rect width="1" height="1" x="185" y="176" class="cls-8" rx="0" ry="0" transform="rotate(-147 155 180)"/><rect width="1" height="1" x="184" y="176" class="cls-8" rx="0" ry="0" transform="rotate(-147 155 180)"/><rect width="1" height="1" x="184" y="177" class="cls-8" rx="0" ry="0" transform="rotate(-147 155 181)"/><rect width="1" height="1" x="184" y="177" class="cls-8" rx="0" ry="0" transform="rotate(-147 154 181)"/><rect width="2" height="2" x="206" y="198" class="cls-8" rx="1" ry="1" transform="rotate(56 187 141)"/><rect width="1" height="1" x="205" y="200" class="cls-8" rx="0" ry="0" transform="rotate(52 188 136)"/><rect width="1" height="1" x="206" y="199" class="cls-8" rx="0" ry="0" transform="rotate(52 188 136)"/><rect width="1" height="1" x="206" y="199" class="cls-8" rx="0" ry="0" transform="rotate(52 188 134)"/><rect width="1" height="1" x="207" y="199" class="cls-8" rx="0" ry="0" transform="rotate(52 189 135)"/><path d="M204 197h2v1h-2z" class="cls-8" transform="rotate(-121 174 209)"/><path d="M103 188s1 6 1 9a10 10 0 0 0-1 5 36 36 0 0 1 0 4 1 1 0 0 0 1 1h2v14l-1 3 1 2a1 1 0 0 0 1 0c0 2 1 3 2 3a2 2 0 0 0 1-3 9 9 0 0 1 0-3l1-7v-9h2a1 1 0 0 0 1-1l-2-10-1-5c3-2 1-6 1-6 6-1 8-8 8-8l-1-1v-2a3 3 0 0 0 1 0l1-1h-2v2l-1 1a9 9 0 0 1-9 6h2a25 25 0 0 0 0-6c0-3-3-3-3-3s-5 1-3 8h1l1 1-5 1c-1 1-4 9-2 12 0 2 5 1 5 1v-1s-4 0-4-2l2-5zM118 146s24-6 34 5 35-4 35-4v24s-24 15-37 1-32-1-32-1z" class="cls-8" transform="translate(-57 -10)"/><path d="M119 170h1v20h-1z" class="cls-8" transform="rotate(-3 -122 1369)"/><path d="M185 171h1v19h-1z" class="cls-8" transform="rotate(-176 157 176)"/><path d="M211 197l-1 8h1c-1 4 2 19 2 19h1v5l2-2v2h1s-1 4 2 4 1-4 1-4h1l1-13 1-10h1l-1-8 4-1c1-3-2-10-3-11l-5-3a8 8 0 0 0 1-3 4 4 0 0 0 0-2c2-2-3-5-2-4s-2 2-3 2l-1 4a13 13 0 0 0 2 3h-2c-3 1-7 9-7 11s4 3 4 3zm12-3v-5l1 5h-1zm-13-1l1-3 1 3z" class="cls-8" transform="translate(-57 -10)"/><path d="M213 154h18v19h-18z" class="cls-8" transform="rotate(7 273 -289)"/><path d="M217 168h2v29h-2z" class="cls-8" transform="rotate(11 241 -110)"/><path d="M179 176s2 0 3 1a11 11 0 0 1 0 3v2a8 8 0 0 0 0 2 9 9 0 0 0 3 1l5 8h-1s2 3 0 4a4 4 0 0 1-2-1h-1l1 7-1 1 2 24 1 2a2 2 0 0 1-3 1 2 2 0 0 0 0-1 2 2 0 0 1-2-2l-3-20 1 8v5l1 5a2 2 0 0 1-2 1h-3v-10l-2-11a3 3 0 0 1-1-3 11 11 0 0 1-3-5 10 10 0 0 1 0-5s1-6 3-7l3-1v-1a5 5 0 0 1-1-2l-1-2s-1-3 3-4z" class="cls-8" transform="translate(-57 -10)"/><path d="M182 227v2a7 7 0 0 0-2 1h-3l2-3h3zM156 185a6 6 0 0 1-1-2s0-3-4-2-3 4-1 6v1l1 1s-3 1-3 4 0 12 3 12c0 0-2 3 0 3l-1 13s-2 12-1 12c0 0 0 4 2 4s2-4 2-4l2-10 2-9 2 6 4 14h1s0 4 2 3l3-2a3 3 0 0 0-2-3l1-1-3-13-3-12v-4l-2-10s6-6 5-14c0 0 2 1 1-1l-2-2v-1a5 5 0 0 0-1 3c1 0-3 9-6 11l-1 1a3 3 0 0 0 0-4z" class="cls-8" transform="translate(-57 -10)"/><path d="M149 190a13 13 0 0 1-11-7h-1l-1 1v1c1 1 5 10 12 10s3-4 2-5h-1z" class="cls-8" transform="translate(-57 -10)"/><path d="M137 184a2 2 0 0 0 0-3 3 3 0 0 0 0-1c-1-1-1 1-1 1l-2-3v2l-1 2v1l1 2h2a8 8 0 0 1 1-1z" class="cls-8" transform="translate(-57 -10)"/><path d="M652 170l2 2-1 2c2 4 7 8 7 8l-2 16h2l-2 10-3 9 1 1c-1 1-5 0-4 2l5 1c3 1 2-2 2-2h1l4-18 1 1 1 6 2 6 2 4v1a12 12 0 0 0-1 2h2l3-1v-2l-1-2-2-11-1-6h1v-9h1a2 2 0 0 0 2-2l-1-8c0-2-3-3-3-3l-1-1-1-1a5 5 0 0 0 1-2c2-2-1-5-1-5l-1 1c-2-1-3 2-3 2v4l-3 2-6-7h-1v-1-3 2l-1-1c-2 2-1 3-1 3zm18 17l1-2v2z" class="cls-12" transform="translate(-57 -10)"/><path d="M614 177h-1l1-2v2z" class="cls-12"/><path d="M684 178s-2 0-3 1a10 10 0 0 0 0 3v1l1 1a8 8 0 0 1 0 2 9 9 0 0 1-3 2c-2 0-4 4-4 7v1s-1 3 0 3a4 4 0 0 0 3 0v7h1v24h1l-2 3a2 2 0 0 0 3 0 3 3 0 0 1 1-1 2 2 0 0 0 1-2h1v-21l1 9-1 5 1 5a2 2 0 0 0 1 1h4l-1-10v-12a2 2 0 0 0 2-3 11 11 0 0 0 2-5 10 10 0 0 0-1-4l1-1s-2-6-4-6l-3-2a5 5 0 0 0 0-2l1-2s1-4-3-4z" class="cls-12" transform="translate(-57 -10)"/><path d="M686 229v2a6 6 0 0 1 2 1s3 1 3-1-2-2-2-3l-3 1zM758 172v1l-1-1v2h-1s-2 4-5 5l-2-2v-3s0-3-2-2v-1s-3 2-2 4a4 4 0 0 0 1 1l-1 1-1 1s-2 0-3 2l-1 5a2 2 0 0 0 1 2l1 1-1 6h1l-1 5a24 24 0 0 0-4 8l1 1-1 1-1 1 3 1h1a9 9 0 0 0-1-1v-1h1l1-3a20 20 0 0 1 3-4l2-5 1 14h1s0 2 2 2 3 1 3 0c1-2-2-2-3-2l1-1-1-7v-8l1 1v-13s5-3 6-6v-1l1-2s1 0 0-2zm-16 13l1-1v1z" class="cls-12" transform="translate(-57 -10)"/><path d="M685 175h1v-2l-1 2z" class="cls-12"/><path d="M754 139h1v38h-1z" class="cls-12" transform="rotate(-12 679 419)"/><path d="M730 143s9-3 13-3h8l2 10-1 1s-8 0-12 1a24 24 0 0 1-8 2zM712 177h-3c-2 1-3 4-3 7l-1 3a11 11 0 0 0-2 5h1s-2 5 0 8l1 2v1l-1 6-1 3 4 1a5 5 0 0 1 0 3c0 1-1 6 2 11v4a2 2 0 0 0 1 1c1 1 1-2 1-3a36 36 0 0 1-1-4v-12h2a28 28 0 0 0 0 4v12s-1 3 1 4 1-2 1-4l1-9v-8h4l-3-8s3-8 1-12h1s-2-6-3-6c0 0 0-8-3-9zM739 187c0-1-3-7-5-7l-1-1a9 9 0 0 0 1-2l-1-2-2-2c0-1-3 2-1 3a3 3 0 0 0-1 1 5 5 0 0 0 1 3 15 15 0 0 0-3 1c-1 1-3 6-2 8l2 1v5h1v7l1 9s-1 3 1 3 1-3 1-3h1v-1l1 1 1-3h1l1-14h1l-1-5s3 0 3-2zm-12 0a22 22 0 0 1 1-3v3zm8-1v-1l1 1zM767 197l-2-12-3-2v-4l-3-1c-3 0-1 3-1 3v3l-2 1-2 12h2l1-8v9c-1 5 2 13 2 15a15 15 0 0 1-1 3h1c0 3 1 3 2 2s-1-2 0-2a3 3 0 0 0 1 0 1 1 0 0 0 1 2v-2a10 10 0 0 0 0-1v-2-7a28 28 0 0 0 1-8v-9l1 8z" class="cls-12" transform="translate(-57 -10)"/><path d="M687 133h27v14h-27z" class="cls-12" transform="rotate(-6 578 664)"/><path d="M703 143h1v43h-1z" class="cls-12" transform="rotate(-6 582 681)"/><path fill="#f2efe1" d="M784 506c-17-28-31-58-32-61-3-6-3-12-3-17l2-8c1-6 0-10-3-15l-1-3-6-14c-1-3-4-6-7-6a11 11 0 0 0-7 1 12 12 0 0 0-8-6 7 7 0 0 0-1 0c-3 0-7 2-8 5a11 11 0 0 0-1 3 10 10 0 0 0-2 0 9 9 0 0 0-5 2c-3 2-5 5-4 8h-1a8 8 0 0 0-8 4c-2 4-1 6 0 9-2 1-6 2-6 7a11 11 0 0 0 0 6l1 1v2a27 27 0 0 0 2 4h1v2a15 15 0 0 0 0 3l2 3 4 8 3 6c4 9 9 12 17 19 3 2 10 13 19 39h53z" transform="translate(-57 -10)"/><path d="M713 390h2l3-1a13 13 0 0 0 2 0 31 31 0 0 0 5-3 10 10 0 0 0-6-6c-2 0-5 1-6 3a10 10 0 0 0 0 6v1zM692 431l1-1h2l-1-1a29 29 0 0 1-3-3l-4-3a24 24 0 0 0 2 3v1a6 6 0 0 1 1 2 12 12 0 0 0 0 3l1-1h1zM711 394l1 1h7c3-1 3-3 3-4a2 2 0 0 0-1-1 16 16 0 0 1-2 1 44 44 0 0 1-6 1l-4 1a1 1 0 0 0 1 1 6 6 0 0 0 1 0zM694 411a121 121 0 0 0 9 12l2 1 2 2a5 5 0 0 0 5 1 12 12 0 0 0 3-3 2 2 0 0 0-1-3 14 14 0 0 1-1-1v-1a9 9 0 0 0-1-1l-1-1v1h-1l-1 1-1 1-1 1h-1l1-1v-1h1l1-1 1-1v-1l-1-2-3-5-5-9-1-1a7 7 0 0 0-3-1 5 5 0 0 0-5 3c-2 2-1 4 0 7a22 22 0 0 0 2 3zM695 428l2 1a1 1 0 0 1 1 0 15 15 0 0 0 3 1 8 8 0 0 0 3 0h1a6 6 0 0 0 1-3l-2-1-1-2-1 1h-1l-1 1-1 1 1-1v-1h1v-1l1-1a132 132 0 0 1-9-11 4 4 0 0 0-3-1c-2 1-4 2-4 4a8 8 0 0 0 0 5 39 39 0 0 1 6 5 31 31 0 0 0 3 3z" class="cls-23" transform="translate(-57 -10)"/><path d="M702 398l6 10 3 6a14 14 0 0 0 2 3 11 11 0 0 1 1 1l1 1a13 13 0 0 0 1 1 2 2 0 0 0 1 1 9 9 0 0 0 5-2 4 4 0 0 1 0-1 6 6 0 0 0 0-4h-1v-1-1l-1-1v1h-2v1h-1l-1 1v-1h1v-1h1l1-1v-1h1l-4-7h-1a17 17 0 0 1-3-2 12 12 0 0 1-2-1 9 9 0 0 1-1-2 6 6 0 0 1-1-2v-1c0-1 0 0 0 0a1 1 0 0 1 0-1 2 2 0 0 1 0-2l3-1v-1a4 4 0 0 0-1-1 6 6 0 0 0-6 0c-3 2-4 4-3 7a18 18 0 0 0 1 2zM724 409h1l1-1h1l1-1h2l-1-1-1-2v-1c0-1 0 0 0 0a12 12 0 0 1-3 1h-5a17 17 0 0 1-2 0l4 8 3 3a19 19 0 0 1 4-3v-2h1a2 2 0 0 0 0-1 3 3 0 0 0 0-1h-1-1l-1 1h-2l-1 1v-1z" class="cls-23" transform="translate(-57 -10)"/><path d="M781 508c-16-27-31-58-32-62-3-7-3-13-3-18l2-8c1-6 0-9-3-14l-1-3-7-14c0-2-2-4-3-4a8 8 0 0 0-6 1l-1 1a37 37 0 0 1-4 2 3 3 0 0 1 0 1 3 3 0 0 1 0 2c0 3-4 5-8 5a14 14 0 0 1-5-1 4 4 0 0 0 0 1 8 8 0 0 0 2 1 12 12 0 0 0 2 2 15 15 0 0 0 2 1h1l1 1h1a18 18 0 0 0 3 0h1a14 14 0 0 0 2 0 10 10 0 0 0 2-1l1-1h1l1-1a11 11 0 0 0 1-2 15 15 0 0 0 1-1l1-2v-1h1a10 10 0 0 1 0 1 10 10 0 0 1-1 2 11 11 0 0 1 0 2 10 10 0 0 1-2 3h-1 2v-1h1l1-1h1l-1 1-1 1h-1v1h-1l-1 1v1a12 12 0 0 0 1 1v2a8 8 0 0 1 1 1 8 8 0 0 1 0 1 6 6 0 0 1-1 1v1a6 6 0 0 1 1 0l2 1h2l1 1h1l1 1 1 1h1l1 1h-1l-1-1h-1l-1-1h-2l-1-1h-1-1a13 13 0 0 0-1 0h-1a16 16 0 0 0-5 3 22 22 0 0 0-2 3 2 2 0 0 1-1 1v1l-1 1v2l-1 2v1l-1 1v1l-1 2v11a62 62 0 0 0 1 5v1l-1-1v-1l-1-1v-2-1l-1-1v-3-2-2-2-2l1-1v-3l1-1a61 61 0 0 1 1-3 10 10 0 0 1-3 0 3 3 0 0 1-1 2 13 13 0 0 1-3 4 6 6 0 0 1-4 1 7 7 0 0 1-1-1 9 9 0 0 1-1 3 3 3 0 0 1-1 1 1 1 0 0 1-1 0 21 21 0 0 0-2 1h-2l-1 1h-1v1h-1l-1 1-1 1v-1a5 5 0 0 1 1-1 5 5 0 0 1 1-1h1v-1h1v-1h1a16 16 0 0 1-4-1 5 5 0 0 0-1 0 8 8 0 0 0-1 0 7 7 0 0 0-2 0 7 7 0 0 0 0 1 6 6 0 0 0-1 0 5 5 0 0 0-1 0 4 4 0 0 0 0 1l4 9 4 7c4 8 8 11 16 17 6 4 15 28 20 42zm-66-64h-1a6 6 0 0 1 0-1v-1-1l-1-1v-1-1-1-1l1-1a9 9 0 0 1 0-1v8h1v2c0 1 0 0 0 0zm16 21v-1l-1-1-2-3-1-1a7 7 0 0 1 1 0 10 10 0 0 1 2 1 10 10 0 0 1 2 2 9 9 0 0 1 0 1l1 1 1 2v1l1 3 2 3 1 4 1 3 1 2 1 3 1 2 1 2v1l-1-1-1-2-1-2-1-2-1-3-3-6-3-6v-1z" class="cls-23" transform="translate(-57 -10)"/><path d="M630 126a2 2 0 0 0 0-3 2 2 0 0 0 0 3zM655 154a1 1 0 0 0 0-3 1 1 0 0 0 0 3zM616 123a1 1 0 0 0 0-3 1 1 0 0 0 0 3z" class="cls-24" transform="translate(-57 -10)"/><path d="M639 113c3 0 3-5 0-5s-3 5 0 5zM643 126c3 0 3-5 0-5s-3 5 0 5zM623 139a1 1 0 0 0 0-3 1 1 0 0 0 0 3z" class="cls-12" transform="translate(-57 -10)"/><path fill="#951b81" d="M647 140a1 1 0 0 0 0-3 1 1 0 0 0 0 3z" transform="translate(-57 -10)"/><path d="M641 151c3 0 3-5 0-5s-3 5 0 5zM635 139c3 0 3-5 0-5s-3 5 0 5z" class="cls-12" transform="translate(-57 -10)"/><path d="M606 124a1 1 0 0 0 0-3 1 1 0 0 0 0 3z" class="cls-24" transform="translate(-57 -10)"/><path d="M106 261a2 2 0 0 0-3 0 2 2 0 0 0 3 0zM100 300a2 2 0 0 0-3 0 2 2 0 0 0 3 0z" class="cls-11" transform="translate(-57 -10)"/><path d="M102 277a2 2 0 0 0-3 0 2 2 0 0 0 3 0z" class="cls-12" transform="translate(-57 -10)"/><path d="M94 245c0-3-6-3-6 0s6 4 6 0z" class="cls-11" transform="translate(-57 -10)"/><path d="M107 241c0-4-5-4-5 0s5 3 5 0zM121 291c0-3-5-3-5 0s5 3 5 0z" class="cls-12" transform="translate(-57 -10)"/><path d="M122 272a2 2 0 0 0-3 0 2 2 0 0 0 3 0z" class="cls-11" transform="translate(-57 -10)"/><path d="M176 129a2 2 0 0 0 0 3 2 2 0 0 0 0-3zM215 135a2 2 0 0 0 0 3 2 2 0 0 0 0-3z" class="cls-12" transform="translate(-57 -10)"/><path d="M192 133a2 2 0 0 0 0 3 2 2 0 0 0 0-3z" class="cls-11" transform="translate(-57 -10)"/><path d="M160 141c-3 0-3 5 0 5s4-5 0-5z" class="cls-12" transform="translate(-57 -10)"/><path d="M156 128c-4 0-4 5 0 5s3-5 0-5zM206 113c-3 0-3 5 0 5s3-5 0-5z" class="cls-11" transform="translate(-57 -10)"/><path d="M187 113a2 2 0 0 0 0 3 2 2 0 0 0 0-3z" class="cls-12" transform="translate(-57 -10)"/></svg>