<svg xmlns="http://www.w3.org/2000/svg" xmlns:xlink="http://www.w3.org/1999/xlink" viewBox="0 0 305 311"><defs><path id="a" d="M0 0h305v311H0z"/></defs><clipPath id="b"><use overflow="visible" xlink:href="#a"/></clipPath><path fill="#B50800" fill-rule="evenodd" d="M152 76c10-9 3-14 21-38 2-3 5-15 13-15 5 1 40 0 49 9a165 165 0 0 1 69 128c-2 17 8 39-20 70-19 18-39 36-66 40-26 4-33-14-43-28-4 11-6 30-13 47-7 13-22 14-35 13-29-3-57-14-84-33 5 2-36-15-38-57-7-44-6-71 13-104 38-44 33-42 40-50l32-25c8-3 16-6 23-6 7 2 13 0 21 14 5 12 13 25 18 35" clip-path="url(#b)" clip-rule="evenodd"/><path fill="#DA0A00" fill-rule="evenodd" d="M71 128c-6-12-13-6-31-31-2-3-13-9-10-17 2-4 11-38 22-44A167 167 0 0 1 195 7c15 7 40 4 61 40 11 23 23 47 19 74-4 26-23 28-39 34 9 6 27 13 41 25 11 11 7 25 2 37-11 27-30 51-56 71 4-4-24 31-65 20-45-6-70-14-96-42-31-50-31-44-36-54l-15-38c0-8-1-16 2-23 3-6 3-12 18-16 14-1 28-5 39-7" clip-path="url(#b)" clip-rule="evenodd"/><defs><path id="c" d="M0 0h305v311H0z"/></defs><clipPath id="d"><use overflow="visible" xlink:href="#c"/></clipPath><path fill="#fff" fill-rule="evenodd" d="M113 108l-2-5 24-9 2 5c3-4 6-6 8-6 8-1 12 4 12 6l1-7 14 2c5 2 8 3 11 10 2 6 1 8 0 12l-6 6 4 2 17-18c3 1 11 9 13 13 2 5 1 10 0 13h3c1 9 3 15 6 23l-8 3c3 1 5 2 7 6 2 6 1 9-1 12l-6 8-1 4-6 9-4 11-5-1 2 4-9 6h-2l-8-10-2 1c0 5-3 8-6 11l-7 5h-9v-2h-4v4l-11-1-1-3v-29l-11 25-3-1c-1-1-4-2-8-9a21 21 0 0 1-2-14l-5 4h-2l-10-13-1-3 10-8v-1c-4 2-8 1-10 1-4-2-5-4-6-7-1-2-3-6-2-11l3-6 3-3 8 6 3 1 2-3-1-8v-3l14-2 3-2-2-2-7-1-9-1c-3-1-7-3-9-6s-2-6-2-10c1-2 2-4 5-6 2-1 5-3 8-3l5 1" clip-path="url(#d)" clip-rule="evenodd"/><path fill="#fff" d="M168 173z" clip-path="url(#d)"/><path fill-rule="evenodd" d="M119 140l1 7c5 0 9 0 13-5s0-13-6-16c-1-1-5-3-11-3h-8c-1 0-3-3-1-5s4-2 8 0l1-7c-4-1-7-2-12 0-8 4-7 13-2 17l10 2c3 1 12 0 14 4 2 3 1 4-1 5l-6 1m-9 2l6-1 2 7h-7l-1-7m27 31c-5 3-11 6-16 11l-11 11-10-11 5-4 6 6 5-6-5-5 5-4 5 6 7-6-2-2-1 2-6-3c2-2 3-4 2-7-1-4-7-3-8 1s-3 7-6 9c-7 4-13-2-15-7-1-4 0-8 3-12l6 4c-3 3-3 5-2 8 3 4 6 1 7-1 1-4 2-7 5-9 4-3 10-2 13 0 6 4 4 11 4 11l2-2 7 9zm-3 13c-10 1-12 10-9 18l9-18zm8-5l-16 34c-3-3-5-4-8-11-1-5-1-11 2-16 6-8 14-9 22-7m0 36h7v7h-7v-7m9-34h-7l-1 31h7l1-31m1 7l4 6c2-3 5-4 8-1 4 5 4 10 4 13-1 6-7 7-12 7l1 7s12 2 17-11c2-6 0-16-8-24-4-3-9-3-14 3m17-12l6 8 13 15-5 5c-8-9-15-18-18-24l4-4zm22 27l-6 4 5 6 5-4c-1-3-2-6-4-6m-16-34c8 6 15 12 24 17l4-8 7 4-12 21-6-3 3-7-24-18 4-6zm35-35l-18 9-15 8 6 12c-2 1-2 3-2 4 0 4 1 6 3 7 3 3 6 4 9 4 4 0 7-2 10-4l5-7c1-1 3-1 2 1 0 3-3 6-4 7l6 4c3-4 5-7 5-12 0-6-5-8-9-7-4 0-6 4-9 7-3 4-6 4-7 4-3 0-3-3-3-4 0-2 1-3 2-3l-2-2 2-2-4-7 7-3 4 8 7-3-4-8 5-3 5 10 6-3-7-17m-10-14l-8 9 6 1 3-3c1-2 0-5-1-7m-31 21l6 6 11-12 9 3c7 0 13-3 14-9s-1-10-3-13l-6-7-31 32m5-18l6 3-4 6-6-4 4-5m-7-21v13c1 0 4 0 6-3 1-1 2-4 0-6-1-3-4-4-6-4m-6-8l11 2c2 1 5 2 7 7 3 5 2 9 0 13-3 4-10 6-13 6v12h-7l2-40zm-16 11c1-2 4-2 6 2 1 3 2 8 1 11 0 4-3 6-5 2-3-5-3-10-2-15m11-2c1 3 3 7 3 14 0 4-2 13-9 13-3 0-6-2-7-4-4-5-6-15-4-23 4-12 14-8 17 0m-40 2l18-9 3 7-5 3 11 28-6 3-12-28-6 3-3-7zm52 52a15 15 0 1 1-30 0 15 15 0 1 1 30 0" clip-path="url(#d)" clip-rule="evenodd"/></svg>